<?xml version="1.0" encoding="utf-8"?>
<!-- Generator: Adobe Illustrator 24.3.0, SVG Export Plug-In . SVG Version: 6.00 Build 0)  -->
<svg version="1.1" id="Capa_1" xmlns="http://www.w3.org/2000/svg" xmlns:xlink="http://www.w3.org/1999/xlink" x="0px" y="0px"
	 viewBox="0 0 24 24" style="enable-background:new 0 0 24 24;" xml:space="preserve">
<style type="text/css">
	.st0{fill:#FFFFFF;}
	.st1{fill:#054B54;}
	.st2{fill:#987009;}
</style>
<circle class="st0" cx="12" cy="12" r="10.6"/>
<path class="st1" d="M12,0.5C5.7,0.5,0.5,5.7,0.5,12S5.7,23.5,12,23.5S23.5,18.3,23.5,12C23.6,5.7,18.5,0.5,12,0.5z M12,22
	C6.6,22,2,17.6,2,12C2,6.6,6.4,2,12,2c5.4,0,10,4.4,10,10C22,17.4,17.6,22,12,22z"/>
<path class="st2" d="M13.2,8.9v1.2h1.9L15,12h-1.8v6.9h-3V12H8.4v-1.9h1.9V7.9c0-1.8,0.9-2.6,3-2.6h1.9v2.8h-1.4
	C13.3,8.1,13.2,8.4,13.2,8.9z"/>
</svg>
