<?xml version="1.0" encoding="utf-8"?>
<!-- Generator: Adobe Illustrator 24.3.0, SVG Export Plug-In . SVG Version: 6.00 Build 0)  -->
<svg version="1.1" id="Capa_1" xmlns="http://www.w3.org/2000/svg" xmlns:xlink="http://www.w3.org/1999/xlink" x="0px" y="0px"
	 viewBox="0 0 24 24" style="enable-background:new 0 0 24 24;" xml:space="preserve">
<style type="text/css">
	.st0{fill:#FFFFFF;}
	.st1{fill:#054B54;}
	.st2{fill:#987009;}
</style>
<circle class="st0" cx="11.9" cy="12" r="10.7"/>
<path class="st1" d="M12,0.4C5.6,0.4,0.4,5.6,0.4,12S5.6,23.6,12,23.6S23.6,18.4,23.6,12S18.4,0.4,12,0.4z M12,22
	C6.5,22,2,17.6,2,12C2,6.5,6.4,2,12,2c5.5,0,10,4.4,10,10C22,17.5,17.5,22,12,22z"/>
<path class="st2" d="M14.9,5.1H9.1c-2.6,0.1-3.9,1.6-4,4v5.7c0.1,2.6,1.6,3.9,4,4h5.7c2.6-0.1,3.9-1.6,4-4V9.1
	C18.8,6.5,17.3,5.2,14.9,5.1z M17.6,14.7c-0.1,1.8-1,2.7-2.9,2.9H9.3c-1.8-0.1-2.7-1-2.9-2.9V9.3c0.1-1.8,1-2.7,2.9-2.9h5.5
	c1.8,0.1,2.7,1,2.9,2.9V14.7z"/>
<path class="st2" d="M12,8.5c-2,0-3.5,1.6-3.5,3.5s1.6,3.5,3.5,3.5s3.5-1.6,3.5-3.5S14,8.5,12,8.5z M12,14.2c-1.2,0-2.2-0.9-2.2-2.2
	s1-2.2,2.2-2.2s2.2,0.9,2.2,2.2S13.2,14.2,12,14.2z"/>
<path class="st2" d="M15.6,9.1c-0.5,0-0.8-0.4-0.8-0.8c0-0.4,0.4-0.8,0.8-0.8c0.5,0,0.8,0.4,0.8,0.8C16.6,8.7,16.2,9.1,15.6,9.1z"/>
</svg>
