<?xml version="1.0" encoding="utf-8"?>
<!-- Generator: Adobe Illustrator 24.3.0, SVG Export Plug-In . SVG Version: 6.00 Build 0)  -->
<svg version="1.1" id="Capa_1" xmlns="http://www.w3.org/2000/svg" xmlns:xlink="http://www.w3.org/1999/xlink" x="0px" y="0px"
	 viewBox="0 0 24 24" style="enable-background:new 0 0 24 24;" xml:space="preserve">
<style type="text/css">
	.st0{fill:#FFFFFF;}
	.st1{fill:#054B54;}
	.st2{fill:#987009;}
</style>
<circle class="st0" cx="11.9" cy="12.1" r="10.8"/>
<path class="st1" d="M12,0.3C5.5,0.3,0.2,5.6,0.2,12.1S5.5,23.9,12,23.9s11.8-5.3,11.8-11.8S18.5,0.3,12,0.3z M12,22.3
	c-5.6,0-10.2-4.5-10.2-10.2C1.8,6.5,6.3,1.9,12,1.9c5.6,0,10.2,4.5,10.2,10.2C22.2,17.7,17.6,22.3,12,22.3z"/>
<circle class="st2" cx="8" cy="7.1" r="1.3"/>
<rect x="6.8" y="9.6" class="st2" width="2.6" height="7.7"/>
<path class="st2" d="M18.5,12.8v4.5H16v-3.7c0-2.4-2.5-2.2-2.5,0v3.7h-2.6V9.6h2.5v1.3C14.5,8.9,18.5,8.7,18.5,12.8z"/>
</svg>
