<?xml version="1.0" encoding="utf-8"?>
<!-- Generator: Adobe Illustrator 24.3.0, SVG Export Plug-In . SVG Version: 6.00 Build 0)  -->
<svg version="1.1" id="Capa_1" xmlns="http://www.w3.org/2000/svg" xmlns:xlink="http://www.w3.org/1999/xlink" x="0px" y="0px"
	 viewBox="0 0 24 24" style="enable-background:new 0 0 24 24;" xml:space="preserve">
<style type="text/css">
	.st0{fill:#FFFFFF;}
	.st1{fill:#987009;}
	.st2{fill:#054B54;}
</style>
<circle class="st0" cx="12" cy="12" r="10.7"/>
<path class="st1" d="M18.1,9.7c0.3,3.9-2.7,8.3-8.1,8.3c-1.6,0-3-0.5-4.3-1.3c1.4,0.3,3-0.3,4.2-1.2c-1.3,0-2.2-0.9-2.6-2
	c0.5,0.1,0.9,0.1,1.3,0c-1.4-0.3-2.3-1.4-2.2-2.7c0.4,0.3,0.8,0.3,1.3,0.4c-1.3-0.9-1.6-2.5-0.9-3.8c1.4,1.7,3.4,2.9,5.7,3
	C12.1,8.6,13.4,7,15.2,7C16,7,16.8,7.3,17.3,8c0.7-0.1,1.3-0.4,1.8-0.7c-0.3,0.7-0.7,1.2-1.3,1.6c0.7-0.1,1-0.3,1.6-0.5
	C19,8.6,18.6,9.3,18.1,9.7z"/>
<path class="st2" d="M12.1,0.4C5.7,0.4,0.5,5.6,0.5,12s5.2,11.6,11.6,11.6S23.7,18.4,23.7,12S18.5,0.4,12.1,0.4z M12.1,22
	c-5.5,0-10-4.4-10-10c0-5.5,4.4-10,10-10c5.5,0,10,4.4,10,10C22,17.5,17.6,22,12.1,22z"/>
</svg>
