<?xml version="1.0" encoding="utf-8"?>
<!-- Generator: Adobe Illustrator 24.2.3, SVG Export Plug-In . SVG Version: 6.00 Build 0)  -->
<svg version="1.1" id="Capa_1" xmlns="http://www.w3.org/2000/svg" xmlns:xlink="http://www.w3.org/1999/xlink" x="0px" y="0px"
	 viewBox="0 0 300 300" style="enable-background:new 0 0 300 300;" xml:space="preserve">
<style type="text/css">
	.st0{fill:#FFFFFF;}
</style>
<g>
	<path class="st0" d="M157.6,180c-1.4,0.8-3,1.3-4.6,1.3s-3.2-0.4-4.6-1.3L32.6,111.7c-1.7-1-3.9,0.2-3.9,2.2v103.8
		c0,10.8,8.7,19.5,19.5,19.5h209.4c10.8,0,19.5-8.8,19.5-19.5V113.9c0-2-2.2-3.2-3.9-2.2L157.6,180L157.6,180z M158.1,158.6
		l117.8-69.5c0.8-0.5,1.3-1.4,1.3-2.4c-0.8-10-9.3-17.9-19.5-17.9H48.3c-10.2,0-18.6,7.9-19.5,17.9c-0.1,1,0.4,1.9,1.3,2.4
		l117.8,69.5C151,160.5,155,160.5,158.1,158.6L158.1,158.6z"/>
</g>
</svg>
