<?xml version="1.0" encoding="utf-8"?>
<!-- Generator: Adobe Illustrator 24.2.3, SVG Export Plug-In . SVG Version: 6.00 Build 0)  -->
<svg version="1.1" id="Capa_1" xmlns="http://www.w3.org/2000/svg" xmlns:xlink="http://www.w3.org/1999/xlink" x="0px" y="0px"
	 viewBox="0 0 24 24" style="enable-background:new 0 0 24 24;" xml:space="preserve">
<style type="text/css">
	.st0{fill:#FFFFFF;}
	.st1{fill:#035C67;}
	.st2{fill:#054B54;}
	.st3{fill:#987009;}
</style>
<path class="st0" d="M-20.6,5.9v12.6h8.6V5.9H-20.6z M-14.3,9h-1.1c-0.4,0-0.5,0.2-0.5,0.6v0.9h1.5l-0.1,1.5h-1.4v5.3h-2.3V12h-1.4
	v-1.5h1.5V8.8c0-1.4,0.7-2,2.3-2h1.5V9z"/>
<path class="st1" d="M-16.6,3c-5,0-9,4-9,9s4.1,9,9,9s9-4.1,9-9S-11.6,3-16.6,3z M-14.3,9h-1.1c-0.4,0-0.5,0.2-0.5,0.6v0.9h1.5
	l-0.1,1.5h-1.4v5.3h-2.3V12h-1.4v-1.5h1.5V8.8c0-1.4,0.7-2,2.3-2h1.5V9z"/>
<path class="st0" d="M-15.9,9.6v0.9h1.5l-0.1,1.5h-1.4v5.3h-2.3V12h-1.4v-1.5h1.5V8.8c0-1.4,0.7-2,2.3-2h1.5V9h-1.1
	C-15.8,9-15.9,9.2-15.9,9.6z"/>
<circle class="st0" cx="11.8" cy="12" r="8.2"/>
<path class="st2" d="M11.8,3.1c-4.9,0-8.9,4-8.9,8.9c0,4.9,4,8.9,8.9,8.9s8.9-4,8.9-8.9C20.8,7.1,16.8,3.1,11.8,3.1z M11.8,19.7
	c-4.2,0-7.7-3.4-7.7-7.7c0-4.2,3.4-7.7,7.7-7.7c4.2,0,7.7,3.4,7.7,7.7C19.5,16.2,16.1,19.7,11.8,19.7z"/>
<path class="st3" d="M12.7,9.6v0.9h1.5L14.1,12h-1.4v5.3h-2.3V12H9v-1.5h1.5V8.8c0-1.4,0.7-2,2.3-2h1.5V9h-1.1
	C12.8,9,12.7,9.2,12.7,9.6z"/>
</svg>
