<?xml version="1.0" encoding="utf-8"?>
<!-- Generator: Adobe Illustrator 24.2.3, SVG Export Plug-In . SVG Version: 6.00 Build 0)  -->
<svg version="1.1" id="Capa_1" xmlns="http://www.w3.org/2000/svg" xmlns:xlink="http://www.w3.org/1999/xlink" x="0px" y="0px"
	 viewBox="0 0 300 300" style="enable-background:new 0 0 300 300;" xml:space="preserve">
<style type="text/css">
	.st0{fill-rule:evenodd;clip-rule:evenodd;fill:#035C67;}
</style>
<g>
	<path class="st0" d="M7.5,67.5h285c4.1,0,7.5,3.4,7.5,7.5v150c0,4.1-3.4,7.5-7.5,7.5H7.5c-4.1,0-7.5-3.4-7.5-7.5V75
		C0,70.9,3.4,67.5,7.5,67.5z M93.4,138.8h22.5v22.4H93.4V138.8z M137.4,138.8H160v22.4h-22.5v-22.4H137.4z M215.1,180v22.5h-133V180
		H215.1z M181.5,138.8h22.4v22.4h-22.4V138.8z M237.2,180H270v22.5h-32.8V180z M247.4,97.5H270V120h-22.5
		C247.4,120,247.4,97.5,247.4,97.5z M203.5,97.5h22.4V120h-22.4V97.5z M159.5,97.5H182V120h-22.5V97.5z M115.4,97.5h22.5V120h-22.5
		C115.4,120,115.4,97.5,115.4,97.5z M71.3,97.5h22.5V120H71.3V97.5z M27.3,180h32.8v22.5H27.3V180z M27.3,138.8h45v22.4h-45
		C27.3,161.2,27.3,138.8,27.3,138.8z M27.3,97.5h22.5V120H27.3V97.5z M225.4,138.8H270v22.4h-44.6V138.8z"/>
</g>
</svg>
