<?xml version="1.0" encoding="utf-8"?>
<!-- Generator: Adobe Illustrator 24.2.3, SVG Export Plug-In . SVG Version: 6.00 Build 0)  -->
<svg version="1.1" xmlns="http://www.w3.org/2000/svg" xmlns:xlink="http://www.w3.org/1999/xlink" x="0px" y="0px"
	 viewBox="0 0 300 300" style="enable-background:new 0 0 300 300;" xml:space="preserve">
<style type="text/css">
	.st0{fill:#8AC7CE;}
</style>
<g id="Capa_2">
</g>
<g id="Capa_1">
	<g>
		<path class="st0" d="M71.4,192.3l-36.3,36.3l0,0v50.1c0,1.5,1.2,2.7,2.7,2.7h35.7c1.5,0,2.7-1.2,2.7-2.7v-84.6
			C75.9,192,73.2,190.8,71.4,192.3z"/>
		<path class="st0" d="M106.8,160.8c-0.9-0.9-2.7-0.9-3.6,0l-3.9,3.9c-0.6,0.6-0.9,1.2-0.9,1.8v112.2c0,1.5,1.2,2.7,2.7,2.7h35.7
			c1.5,0,2.7-1.2,2.7-2.7v-84.6c0-0.6-0.3-1.2-0.9-1.8L106.8,160.8z"/>
		<path class="st0" d="M198.3,173.7l-35.7,35.7c-0.6,0.6-0.9,1.2-0.9,1.8v67.5c0,1.5,1.2,2.7,2.7,2.7h35.7c1.5,0,2.7-1.2,2.7-2.7
			V175.5C202.5,173.4,199.8,172.2,198.3,173.7z"/>
		<path class="st0" d="M261.6,110.4l-35.7,35.7c-0.6,0.6-0.9,1.2-0.9,1.8v130.8c0,1.5,1.2,2.7,2.7,2.7h35.7c1.5,0,2.7-1.2,2.7-2.7
			V112.2C266.1,110.1,263.1,108.9,261.6,110.4z"/>
		<path class="st0" d="M289.8,18.6h-73.2c-2.4,0-3.3,2.7-1.8,4.5L237,45.3l-76.2,76.2c-0.9,0.9-2.7,0.9-3.6,0l-50.4-50.4
			c-0.9-0.9-2.7-0.9-3.6,0L8.1,166.2c-0.9,0.9-0.9,2.7,0,3.6L33.3,195c0.9,0.9,2.7,0.9,3.6,0l66.3-66.3c0.9-0.9,2.7-0.9,3.6,0
			l50.4,50.4c0.9,0.9,2.7,0.9,3.6,0l105-105L288,96.3c1.5,1.5,4.5,0.6,4.5-1.8V21.3C292.5,19.8,291.3,18.6,289.8,18.6z"/>
	</g>
</g>
</svg>
