<?xml version="1.0" encoding="utf-8"?>
<!-- Generator: Adobe Illustrator 24.2.3, SVG Export Plug-In . SVG Version: 6.00 Build 0)  -->
<svg version="1.1" id="Capa_1" xmlns="http://www.w3.org/2000/svg" xmlns:xlink="http://www.w3.org/1999/xlink" x="0px" y="0px"
	 viewBox="0 0 300 300" style="enable-background:new 0 0 300 300;" xml:space="preserve">
<style type="text/css">
	.st0{fill:#035C67;}
</style>
<g>
	<g>
		<path class="st0" d="M299.1,132.3c-5.8-12.1-11.6-24.2-17.4-36.4c-3-6.4-5.9-12.8-8.8-19.2c-1.8-4.1-5-5.2-8.7-2.7
			c-7.4,5.1-29.8,20.4-42.4,20.5c-6.8,0.1-13.3-0.8-19.8-2.6c-4.2-1.1-8.3-2.6-12.4-4.2c-6.3-2.5-12.5-5.2-18.3-5.4
			c-4.3,0-7.1,0.3-9.6,2.4l-0.5,0.5l-5.2,4.7l0,0L136.2,108c-0.4,0.4-0.7,0.7-1.1,1.1c-0.4,0.3-0.9,0.6-1.2,1l-19.8,18.1
			c-0.4,0.3-0.7,0.7-0.9,1c-0.2,0.2-0.4,0.4-0.6,0.7c-0.6,0.7-1,1.6-1.2,2.5c-1.2,6,5.1,14.5,11.2,15.6c7.8,1.4,15,0,21.3-4.6
			c3.9-2.8,8.1-6,12.5-9.3c1.2-0.9,2.4-1.8,3.6-2.7c0.1-0.1,0.2-0.1,0.2-0.2c1.1-0.9,2.3-1.8,3.4-2.6l0,0c3.4-2.1,7.3-3.2,11.3-3.2
			c1.9,0,3.8,0.2,5.6,0.7c2.9,0.8,5.6,2.2,8,4.1c0.1,0,0.1,0.1,0.2,0.2c0.4,0.3,0.8,0.7,1.2,1c0.1,0.1,0.2,0.2,0.3,0.3
			c0.9,0.8,1.8,1.6,2.7,2.5c2.6,2.4,5,5,7.4,7.6l8.9,8.9c0.4,0.4,0.7,0.8,1.1,1.2c0.4,0.4,0.8,0.7,1.2,1.1l19,18.9l0,0l8.2,8.2
			c2.4,1.3,5,0.9,7.6-1.3c4-3.4,10.3-8.3,14.4-11.5c6.1-4.9,30.2-22,36.4-26.8C299.9,138.3,300.7,135.7,299.1,132.3z"/>
		<path class="st0" d="M84.2,162.3c-4.2-4.2-11.1-4.2-15.3,0l-19,19c-4.2,4.2-4.2,11.1,0,15.3s11.1,4.2,15.3,0l19-19
			C88.5,173.4,88.5,166.5,84.2,162.3z"/>
		<path class="st0" d="M106.8,179.4c-4.2-4.2-11.1-4.2-15.3,0l-19,19c-4.2,4.2-4.2,11.1,0,15.3s11.1,4.2,15.3,0l19-19
			C111,190.5,111,183.6,106.8,179.4z"/>
		<path class="st0" d="M130.4,193.3c-4.2-4.2-11.1-4.2-15.3,0l-19,19c-4.2,4.2-4.2,11.1,0,15.3s11.1,4.2,15.3,0l19-19
			C134.6,204.4,134.6,197.6,130.4,193.3z"/>
		<path class="st0" d="M154.7,223.6c2.3-3.2,2.6-7.4,0.8-10.9c-0.5-1.1-1.2-2-2.1-2.9c-0.9-0.9-1.9-1.6-2.9-2.1
			c-3.3-1.6-7.2-1.4-10.3,0.5c-0.7,0.4-1.4,0.9-2,1.6l-18.9,19c-4.2,4.2-4.2,11.1,0,15.3s11.1,4.2,15.3,0l18.9-18.9
			C153.9,224.7,154.3,224.1,154.7,223.6z"/>
		<path class="st0" d="M209.8,160.9c-0.2-0.2-0.5-0.5-0.7-0.7l-4-4l-0.7-0.7l-6.1-6.2l-3.6-3.5l-5.2-5.3l-0.3-0.3l-1.5-1.5l-2.1-2.1
			c-0.9-0.9-1.9-1.7-3-2.3c-1.3-0.8-2.8-1.4-4.3-1.7c-1-0.3-2.1-0.4-3.2-0.4c-2.7,0-5.2,0.7-7.5,2c-0.5,0.3-1,0.6-1.5,1
			c-0.6,0.4-1.1,0.8-1.5,1.3c-0.1,0.1-0.2,0.1-0.2,0.2c-1.3,1.2-2.7,2.3-4.1,3.4c-1.4,1.1-2.7,2.1-4.1,3.2c-0.8,0.6-1.7,1.2-2.5,1.8
			l0,0c-3.9,2.7-8.1,5.2-12.3,7.4c-14,6.8-28.2,3.7-36.3-10.7c-0.3-0.6-0.6-1.1-0.8-1.7c-0.3-0.8-0.5-1.5-0.6-2.4
			c-0.7-4.5,0.8-9.3,4.1-12.4c9-8.4,17.9-16.9,26.9-25.4c3.3-3.1,6.7-6.3,10.1-9.6c0.8-0.8,1.7-1.6,2.6-2.5
			c-2.6-2.1-5.4-2.6-8.3-2.8c-0.3,0-0.6-0.1-0.9-0.1c-11-0.5-21.6,1.9-32.2,4.6c-0.5,0.1-0.9,0.2-1.3,0.4c-0.2,0.1-0.5,0.1-0.7,0.2
			c-1.4,0.5-2.7,0.9-4.1,1.3c-0.5,0.1-1,0.3-1.4,0.4c-2.9,0.9-5.9,1.7-8.9,2.1c-4.4,0.6-8.4,0.7-10.9,0.5c-5-0.4-11.5-2.5-18-5.7
			c-10-4.9-19.9-11.7-24.4-14.8c-1.8-1.2-3.4-1.5-4.8-1.2c-1.6,0.4-2.9,1.7-3.9,3.9c-2.9,6.4-5.8,12.8-8.8,19.2
			C13,107.9,7.2,120,1.4,132.1c-1.6,3.4-0.9,6,2,8.2c6.2,4.7,30.3,21.9,36.4,26.8c0.9,0.7,1.9,1.5,3,2.4c0.1,0.1,0.3,0.2,0.4,0.3
			c2,1.4,3.7,2.7,5.1,3.8l16.3-16.3c3.3-3.3,7.7-5.1,12.4-5.1c3.5,0,6.8,1,9.6,2.9c1,0.6,1.9,1.4,2.8,2.3c0.4,0.4,0.8,0.8,1.1,1.2
			c0.2,0.3,0.5,0.6,0.7,0.8c0.2,0.3,0.5,0.6,0.7,1s0.5,0.8,0.7,1.2c0,0.1,0.1,0.2,0.2,0.3c0.1,0.3,0.3,0.6,0.4,0.9
			c0.1,0.3,0.2,0.6,0.3,0.8c0.1,0.3,0.2,0.5,0.2,0.8c0.2,0.4,0.3,0.9,0.4,1.3c0.1,0.4,0.2,0.7,0.2,1.1c0.1,0.5,0.1,1,0.2,1.5
			c0.1,0.6,0.1,1.2,0.1,1.7c0.1,0,0.2-0.1,0.2-0.1c0.5-0.1,0.9-0.2,1.3-0.3s0.8-0.2,1.2-0.2c0.3-0.1,0.6-0.1,0.9-0.1
			c0.5,0,0.9-0.1,1.3-0.1c0.5,0,1.1,0,1.6,0.1c0.1,0,0.3,0,0.4,0c1,0.1,2,0.3,3,0.6c1.4,0.4,2.7,1,4,1.8c0,0,0.1,0,0.1,0.1
			c0.3,0.2,0.6,0.4,0.9,0.6c0.3,0.2,0.6,0.4,0.8,0.6c0.2,0.2,0.5,0.4,0.7,0.6c0.3,0.2,0.6,0.5,0.9,0.8c0.4,0.4,0.7,0.8,1.1,1.2
			c0.1,0.2,0.3,0.4,0.4,0.6c0.3,0.4,0.5,0.7,0.8,1c0.3,0.4,0.6,0.8,0.8,1.3c0.6,1,1,2.1,1.3,3.2c0.1,0.5,0.3,0.9,0.4,1.3
			c0.1,0.5,0.2,0.9,0.2,1.4c2-0.8,4.1-1.2,6.2-1.2c4.7,0,9.1,1.8,12.4,5.1c2.1,2.1,3.5,4.5,4.3,7.2c0.4,1.2,0.6,2.4,0.7,3.6
			c0,0.5,0.1,1,0.1,1.4c0.7-0.2,1.5-0.5,2.3-0.6c0.5-0.1,0.9-0.1,1.4-0.2h0.4c0.5-0.1,1.1-0.1,1.6-0.1c0.4,0,0.7,0,1.1,0
			c4.3,0.2,8.3,2,11.4,5.1c3.4,3.4,5.1,7.9,5.1,12.4c0,0.6,0,1.1-0.1,1.6v0.1c0,0.4-0.1,0.8-0.1,1.1c0,0.1,0,0.1,0,0.2
			c-0.1,0.7-0.2,1.3-0.5,2c-0.1,0.4-0.2,0.8-0.4,1.3c0,0,0,0,0,0.1c-0.1,0.2-0.1,0.4-0.2,0.6c-0.1,0.2-0.2,0.5-0.4,0.8
			c-0.1,0.2-0.2,0.4-0.3,0.6c-0.4,0.8-0.9,1.5-1.5,2.3c-0.1,0.1-0.2,0.2-0.3,0.4s-0.3,0.3-0.4,0.5c-0.2,0.4-0.6,0.7-0.8,1
			l-15.5,15.5c2.1,1.2,4.6,1.9,7.1,1.9c3.4,0,6.7-1.2,9.3-3.3c0.1,0,0.1-0.1,0.2-0.1c0.3-0.2,0.6-0.6,1-0.9c1.5-1.5,2.6-3.3,3.4-5.1
			c0.6-1.6,0.9-3.3,0.9-4.9c2.2,1.3,4.7,1.9,7.3,1.9c4,0,7.7-1.5,10.5-4.4c3.5-3.5,4.9-8.4,4.1-13c2.7,2.3,6,3.5,9.6,3.5
			c4,0,7.7-1.5,10.5-4.4c3.7-3.7,5-8.8,4-13.5c2.3,1.4,4.9,2.2,7.6,2.2c4,0,7.7-1.6,10.5-4.4c5.8-5.8,5.8-15.2,0-21L209.8,160.9z"/>
	</g>
</g>
</svg>
