<?xml version="1.0" encoding="utf-8"?>
<!-- Generator: Adobe Illustrator 24.2.3, SVG Export Plug-In . SVG Version: 6.00 Build 0)  -->
<svg version="1.1" id="Capa_1" xmlns="http://www.w3.org/2000/svg" xmlns:xlink="http://www.w3.org/1999/xlink" x="0px" y="0px"
	 viewBox="0 0 300 300" style="enable-background:new 0 0 300 300;" xml:space="preserve">
<style type="text/css">
	.st0{fill:#8AC7CE;}
</style>
<path class="st0" d="M150,96c-69.3,0-109.2-9-119-15.1c9.8-6,49.7-15.1,119-15.1s109.2,9,119,15.1C259.2,86.9,219.3,96,150,96z"/>
<path class="st0" d="M189.2,172c6.8,13.6,1.5,33.9-13.6,49.7c-9,9-19.6,15.1-30.9,16.6c-5.3,0.8-10.5,0-15.1-0.8
	c12.1-9,17.3-21.8,21.1-33.1c1.5-3.8,3-8.3,5.3-12.1C160.5,180.3,178.6,174.3,189.2,172z"/>
<path class="st0" d="M150,50.8c-16.6,0-79.1,0.8-113.7,12.1L57.4,5.6h178.5l25.6,56.5C226.8,51.5,165.8,50.8,150,50.8z"/>
<path class="st0" d="M130.4,176.6c11.3-11.3,24.9-16.6,36.2-16.6c3,0,5.3,0.8,7.5,0.8c-12.1,3.8-26.4,11.3-32.4,24.1
	c-2.3,4.5-3.8,9-5.3,13.6c-4.5,12.1-8.3,22.6-19.6,28.6C109.3,214.2,114.6,192.4,130.4,176.6z"/>
<path class="st0" d="M35.5,99l60.3,194.3c47.4,10.5,94.9,3,108.5,0L264.5,99C230.6,110.3,166.6,111,150,111S69.4,110.3,35.5,99z
	 M195.9,156.2c0.8,0.8,0.8,0.8,1.5,1.5c0.8,0.8,1.5,1.5,2.3,3c14.3,18.8,9,49.7-13.6,72.3c-11.3,11.3-24.9,18.8-39.2,20.3
	c-3,0.8-5.3,0.8-8.3,0.8c-11.3,0-20.3-3.8-27.9-10.5l0,0l-0.8-0.8c0,0,0,0,0-0.8l0,0c-17.3-18.1-12.8-52,10.5-76.1
	C143.2,141.9,177.9,137.4,195.9,156.2z"/>
</svg>
