<?xml version="1.0" encoding="utf-8"?>
<!-- Generator: Adobe Illustrator 24.2.3, SVG Export Plug-In . SVG Version: 6.00 Build 0)  -->
<svg version="1.1" id="Capa_1" xmlns="http://www.w3.org/2000/svg" xmlns:xlink="http://www.w3.org/1999/xlink" x="0px" y="0px"
	 viewBox="0 0 24 24" style="enable-background:new 0 0 24 24;" xml:space="preserve">
<style type="text/css">
	.st0{fill:#FFFFFF;}
	.st1{fill:#035C67;}
	.st2{fill:#054B54;}
	.st3{fill:#987009;}
</style>
<path class="st0" d="M-15.3,7.7h-4.2c-1.4,0.1-2.1,0.8-2.2,2.2v4.2c0.1,1.4,0.8,2.1,2.2,2.2h4.2c1.4-0.1,2.1-0.8,2.2-2.2V9.9
	C-13.2,8.5-13.9,7.8-15.3,7.7z M-17.4,14.7c-1.5,0-2.7-1.2-2.7-2.7s1.2-2.7,2.7-2.7s2.7,1.2,2.7,2.7S-15.9,14.7-17.4,14.7z
	 M-14.6,9.8c-0.4,0-0.6-0.3-0.6-0.6s0.3-0.6,0.6-0.6c0.4,0,0.6,0.3,0.6,0.6C-13.9,9.5-14.2,9.8-14.6,9.8z M-17.4,10.3
	c-0.9,0-1.7,0.7-1.7,1.7s0.8,1.7,1.7,1.7s1.7-0.7,1.7-1.7S-16.5,10.3-17.4,10.3z"/>
<path class="st0" d="M-23,6.4v11.3h11.3V6.4H-23z M-12.1,14.2c-0.1,1.9-1.1,3-3.1,3.1h-4.4c-1.9-0.1-3-1.1-3.1-3.1V9.8
	c0.1-1.9,1.1-3,3.1-3.1h4.4c1.9,0.1,3,1.1,3.1,3.1V14.2z"/>
<path class="st1" d="M-17.4,10.3c-0.9,0-1.7,0.7-1.7,1.7s0.8,1.7,1.7,1.7s1.7-0.7,1.7-1.7S-16.5,10.3-17.4,10.3z M-17.4,10.3
	c-0.9,0-1.7,0.7-1.7,1.7s0.8,1.7,1.7,1.7s1.7-0.7,1.7-1.7S-16.5,10.3-17.4,10.3z M-15.3,7.7h-4.2c-1.4,0.1-2.1,0.8-2.2,2.2v4.2
	c0.1,1.4,0.8,2.1,2.2,2.2h4.2c1.4-0.1,2.1-0.8,2.2-2.2V9.9C-13.2,8.5-13.9,7.8-15.3,7.7z M-17.4,14.7c-1.5,0-2.7-1.2-2.7-2.7
	s1.2-2.7,2.7-2.7s2.7,1.2,2.7,2.7S-15.9,14.7-17.4,14.7z M-14.6,9.8c-0.4,0-0.6-0.3-0.6-0.6s0.3-0.6,0.6-0.6c0.4,0,0.6,0.3,0.6,0.6
	C-13.9,9.5-14.2,9.8-14.6,9.8z M-17.4,10.3c-0.9,0-1.7,0.7-1.7,1.7s0.8,1.7,1.7,1.7s1.7-0.7,1.7-1.7S-16.5,10.3-17.4,10.3z
	 M-17.4,10.3c-0.9,0-1.7,0.7-1.7,1.7s0.8,1.7,1.7,1.7s1.7-0.7,1.7-1.7S-16.5,10.3-17.4,10.3z M-17.4,10.3c-0.9,0-1.7,0.7-1.7,1.7
	s0.8,1.7,1.7,1.7s1.7-0.7,1.7-1.7S-16.5,10.3-17.4,10.3z M-17.4,10.3c-0.9,0-1.7,0.7-1.7,1.7s0.8,1.7,1.7,1.7s1.7-0.7,1.7-1.7
	S-16.5,10.3-17.4,10.3z M-17.4,10.3c-0.9,0-1.7,0.7-1.7,1.7s0.8,1.7,1.7,1.7s1.7-0.7,1.7-1.7S-16.5,10.3-17.4,10.3z M-15.3,7.7h-4.2
	c-1.4,0.1-2.1,0.8-2.2,2.2v4.2c0.1,1.4,0.8,2.1,2.2,2.2h4.2c1.4-0.1,2.1-0.8,2.2-2.2V9.9C-13.2,8.5-13.9,7.8-15.3,7.7z M-17.4,14.7
	c-1.5,0-2.7-1.2-2.7-2.7s1.2-2.7,2.7-2.7s2.7,1.2,2.7,2.7S-15.9,14.7-17.4,14.7z M-14.6,9.8c-0.4,0-0.6-0.3-0.6-0.6s0.3-0.6,0.6-0.6
	c0.4,0,0.6,0.3,0.6,0.6C-13.9,9.5-14.2,9.8-14.6,9.8z M-17.4,10.3c-0.9,0-1.7,0.7-1.7,1.7s0.8,1.7,1.7,1.7s1.7-0.7,1.7-1.7
	S-16.5,10.3-17.4,10.3z M-15.3,7.7h-4.2c-1.4,0.1-2.1,0.8-2.2,2.2v4.2c0.1,1.4,0.8,2.1,2.2,2.2h4.2c1.4-0.1,2.1-0.8,2.2-2.2V9.9
	C-13.2,8.5-13.9,7.8-15.3,7.7z M-17.4,14.7c-1.5,0-2.7-1.2-2.7-2.7s1.2-2.7,2.7-2.7s2.7,1.2,2.7,2.7S-15.9,14.7-17.4,14.7z
	 M-14.6,9.8c-0.4,0-0.6-0.3-0.6-0.6s0.3-0.6,0.6-0.6c0.4,0,0.6,0.3,0.6,0.6C-13.9,9.5-14.2,9.8-14.6,9.8z M-17.4,10.3
	c-0.9,0-1.7,0.7-1.7,1.7s0.8,1.7,1.7,1.7s1.7-0.7,1.7-1.7S-16.5,10.3-17.4,10.3z M-17.4,3c-5,0-9,4-9,9s4.1,9,9,9s9-4.1,9-9
	S-12.4,3-17.4,3z M-12.1,14.2c-0.1,1.9-1.1,3-3.1,3.1h-4.4c-1.9-0.1-3-1.1-3.1-3.1V9.8c0.1-1.9,1.1-3,3.1-3.1h4.4
	c1.9,0.1,3,1.1,3.1,3.1V14.2z M-15.3,7.7h-4.2c-1.4,0.1-2.1,0.8-2.2,2.2v4.2c0.1,1.4,0.8,2.1,2.2,2.2h4.2c1.4-0.1,2.1-0.8,2.2-2.2
	V9.9C-13.2,8.5-13.9,7.8-15.3,7.7z M-17.4,14.7c-1.5,0-2.7-1.2-2.7-2.7s1.2-2.7,2.7-2.7s2.7,1.2,2.7,2.7S-15.9,14.7-17.4,14.7z
	 M-14.6,9.8c-0.4,0-0.6-0.3-0.6-0.6s0.3-0.6,0.6-0.6c0.4,0,0.6,0.3,0.6,0.6C-13.9,9.5-14.2,9.8-14.6,9.8z M-17.4,10.3
	c-0.9,0-1.7,0.7-1.7,1.7s0.8,1.7,1.7,1.7s1.7-0.7,1.7-1.7S-16.5,10.3-17.4,10.3z M-17.4,10.3c-0.9,0-1.7,0.7-1.7,1.7
	s0.8,1.7,1.7,1.7s1.7-0.7,1.7-1.7S-16.5,10.3-17.4,10.3z M-17.4,10.3c-0.9,0-1.7,0.7-1.7,1.7s0.8,1.7,1.7,1.7s1.7-0.7,1.7-1.7
	S-16.5,10.3-17.4,10.3z M-15.3,7.7h-4.2c-1.4,0.1-2.1,0.8-2.2,2.2v4.2c0.1,1.4,0.8,2.1,2.2,2.2h4.2c1.4-0.1,2.1-0.8,2.2-2.2V9.9
	C-13.2,8.5-13.9,7.8-15.3,7.7z M-17.4,14.7c-1.5,0-2.7-1.2-2.7-2.7s1.2-2.7,2.7-2.7s2.7,1.2,2.7,2.7S-15.9,14.7-17.4,14.7z
	 M-14.6,9.8c-0.4,0-0.6-0.3-0.6-0.6s0.3-0.6,0.6-0.6c0.4,0,0.6,0.3,0.6,0.6C-13.9,9.5-14.2,9.8-14.6,9.8z M-17.4,10.3
	c-0.9,0-1.7,0.7-1.7,1.7s0.8,1.7,1.7,1.7s1.7-0.7,1.7-1.7S-16.5,10.3-17.4,10.3z M-17.4,10.3c-0.9,0-1.7,0.7-1.7,1.7
	s0.8,1.7,1.7,1.7s1.7-0.7,1.7-1.7S-16.5,10.3-17.4,10.3z M-17.4,10.3c-0.9,0-1.7,0.7-1.7,1.7s0.8,1.7,1.7,1.7s1.7-0.7,1.7-1.7
	S-16.5,10.3-17.4,10.3z M-15.3,7.7h-4.2c-1.4,0.1-2.1,0.8-2.2,2.2v4.2c0.1,1.4,0.8,2.1,2.2,2.2h4.2c1.4-0.1,2.1-0.8,2.2-2.2V9.9
	C-13.2,8.5-13.9,7.8-15.3,7.7z M-17.4,14.7c-1.5,0-2.7-1.2-2.7-2.7s1.2-2.7,2.7-2.7s2.7,1.2,2.7,2.7S-15.9,14.7-17.4,14.7z
	 M-14.6,9.8c-0.4,0-0.6-0.3-0.6-0.6s0.3-0.6,0.6-0.6c0.4,0,0.6,0.3,0.6,0.6C-13.9,9.5-14.2,9.8-14.6,9.8z M-17.4,10.3
	c-0.9,0-1.7,0.7-1.7,1.7s0.8,1.7,1.7,1.7s1.7-0.7,1.7-1.7S-16.5,10.3-17.4,10.3z M-17.4,10.3c-0.9,0-1.7,0.7-1.7,1.7
	s0.8,1.7,1.7,1.7s1.7-0.7,1.7-1.7S-16.5,10.3-17.4,10.3z M-17.4,10.3c-0.9,0-1.7,0.7-1.7,1.7s0.8,1.7,1.7,1.7s1.7-0.7,1.7-1.7
	S-16.5,10.3-17.4,10.3z M-17.4,10.3c-0.9,0-1.7,0.7-1.7,1.7s0.8,1.7,1.7,1.7s1.7-0.7,1.7-1.7S-16.5,10.3-17.4,10.3z M-17.4,10.3
	c-0.9,0-1.7,0.7-1.7,1.7s0.8,1.7,1.7,1.7s1.7-0.7,1.7-1.7S-16.5,10.3-17.4,10.3z M-17.4,10.3c-0.9,0-1.7,0.7-1.7,1.7
	s0.8,1.7,1.7,1.7s1.7-0.7,1.7-1.7S-16.5,10.3-17.4,10.3z M-17.4,10.3c-0.9,0-1.7,0.7-1.7,1.7s0.8,1.7,1.7,1.7s1.7-0.7,1.7-1.7
	S-16.5,10.3-17.4,10.3z M-15.3,7.7h-4.2c-1.4,0.1-2.1,0.8-2.2,2.2v4.2c0.1,1.4,0.8,2.1,2.2,2.2h4.2c1.4-0.1,2.1-0.8,2.2-2.2V9.9
	C-13.2,8.5-13.9,7.8-15.3,7.7z M-17.4,14.7c-1.5,0-2.7-1.2-2.7-2.7s1.2-2.7,2.7-2.7s2.7,1.2,2.7,2.7S-15.9,14.7-17.4,14.7z
	 M-14.6,9.8c-0.4,0-0.6-0.3-0.6-0.6s0.3-0.6,0.6-0.6c0.4,0,0.6,0.3,0.6,0.6C-13.9,9.5-14.2,9.8-14.6,9.8z M-17.4,10.3
	c-0.9,0-1.7,0.7-1.7,1.7s0.8,1.7,1.7,1.7s1.7-0.7,1.7-1.7S-16.5,10.3-17.4,10.3z M-17.4,10.3c-0.9,0-1.7,0.7-1.7,1.7
	s0.8,1.7,1.7,1.7s1.7-0.7,1.7-1.7S-16.5,10.3-17.4,10.3z M-17.4,10.3c-0.9,0-1.7,0.7-1.7,1.7s0.8,1.7,1.7,1.7s1.7-0.7,1.7-1.7
	S-16.5,10.3-17.4,10.3z"/>
<path class="st0" d="M-15.2,6.7h-4.4c-2,0.1-3,1.2-3.1,3.1v4.4c0.1,2,1.2,3,3.1,3.1h4.4c2-0.1,3-1.2,3.1-3.1V9.8
	C-12.2,7.8-13.3,6.8-15.2,6.7z M-13.1,14.1c-0.1,1.4-0.8,2.1-2.2,2.2h-4.2c-1.4-0.1-2.1-0.8-2.2-2.2V9.9c0.1-1.4,0.8-2.1,2.2-2.2
	h4.2c1.4,0.1,2.1,0.8,2.2,2.2V14.1z"/>
<path class="st0" d="M-17.4,9.3c-1.5,0-2.7,1.2-2.7,2.7s1.2,2.7,2.7,2.7s2.7-1.2,2.7-2.7S-15.9,9.3-17.4,9.3z M-17.4,13.7
	c-0.9,0-1.7-0.7-1.7-1.7s0.8-1.7,1.7-1.7s1.7,0.7,1.7,1.7S-16.5,13.7-17.4,13.7z"/>
<path class="st0" d="M-14.6,9.8c-0.4,0-0.6-0.3-0.6-0.6s0.3-0.6,0.6-0.6c0.4,0,0.6,0.3,0.6,0.6C-13.9,9.5-14.2,9.8-14.6,9.8z"/>
<circle class="st0" cx="11.9" cy="12" r="8.2"/>
<path class="st2" d="M12,3.1c-4.9,0-8.9,4-8.9,8.9c0,4.9,4,8.9,8.9,8.9s8.9-4,8.9-8.9C20.9,7.1,16.9,3.1,12,3.1z M12,19.7
	c-4.2,0-7.7-3.4-7.7-7.7c0-4.2,3.4-7.7,7.7-7.7c4.2,0,7.7,3.4,7.7,7.7C19.7,16.2,16.2,19.7,12,19.7z"/>
<path class="st3" d="M14.2,6.7H9.8c-2,0.1-3,1.2-3.1,3.1v4.4c0.1,2,1.2,3,3.1,3.1h4.4c2-0.1,3-1.2,3.1-3.1V9.8
	C17.2,7.8,16.1,6.8,14.2,6.7z M16.3,14.1c-0.1,1.4-0.8,2.1-2.2,2.2H9.9c-1.4-0.1-2.1-0.8-2.2-2.2V9.9c0.1-1.4,0.8-2.1,2.2-2.2h4.2
	c1.4,0.1,2.1,0.8,2.2,2.2V14.1z"/>
<path class="st3" d="M12,9.3c-1.5,0-2.7,1.2-2.7,2.7s1.2,2.7,2.7,2.7s2.7-1.2,2.7-2.7S13.5,9.3,12,9.3z M12,13.7
	c-0.9,0-1.7-0.7-1.7-1.7s0.8-1.7,1.7-1.7s1.7,0.7,1.7,1.7S12.9,13.7,12,13.7z"/>
<path class="st3" d="M14.8,9.8c-0.4,0-0.6-0.3-0.6-0.6s0.3-0.6,0.6-0.6c0.4,0,0.6,0.3,0.6,0.6C15.5,9.5,15.2,9.8,14.8,9.8z"/>
</svg>
