<?xml version="1.0" encoding="utf-8"?>
<!-- Generator: Adobe Illustrator 24.2.3, SVG Export Plug-In . SVG Version: 6.00 Build 0)  -->
<svg version="1.1" id="Capa_1" xmlns="http://www.w3.org/2000/svg" xmlns:xlink="http://www.w3.org/1999/xlink" x="0px" y="0px"
	 viewBox="0 0 24 24" style="enable-background:new 0 0 24 24;" xml:space="preserve">
<style type="text/css">
	.st0{fill:#FFFFFF;}
	.st1{fill:#8AC7CE;}
</style>
<rect x="6.4" y="6.4" class="st0" width="11.3" height="11.3"/>
<path class="st1" d="M14.1,7.7c-0.5,0-0.8,0-2.1,0s-1.6,0-2.1,0C8.5,7.8,7.8,8.5,7.7,9.9c0,0.5,0,0.8,0,2.1s0,1.6,0,2.1
	c0.1,1.4,0.8,2.1,2.2,2.2c0.5,0,0.8,0,2.1,0c1.4,0,1.6,0,2.1,0c1.4-0.1,2.1-0.8,2.2-2.2c0-0.5,0-0.8,0-2.1s0-1.6,0-2.1
	C16.2,8.5,15.5,7.8,14.1,7.7z M12,14.7c-1.5,0-2.7-1.2-2.7-2.7s1.2-2.7,2.7-2.7s2.7,1.2,2.7,2.7S13.5,14.7,12,14.7z M14.8,9.8
	c-0.4,0-0.6-0.3-0.6-0.6c0-0.3,0.3-0.6,0.6-0.6c0.4,0,0.6,0.3,0.6,0.6C15.5,9.5,15.2,9.8,14.8,9.8z M13.7,12c0,1-0.8,1.7-1.7,1.7
	S10.3,13,10.3,12s0.8-1.7,1.7-1.7S13.7,11,13.7,12z M12,3C7,3,3,7,3,12s4.1,9,9,9s9-4.1,9-9S17,3,12,3z M17.3,14.2
	c-0.1,1.9-1.1,3-3.1,3.1c-0.5,0-0.8,0-2.2,0s-1.6,0-2.2,0c-1.9-0.1-3-1.1-3.1-3.1c0-0.5,0-0.8,0-2.2s0-1.6,0-2.2
	c0.1-1.9,1.1-3,3.1-3.1c0.5,0,0.8,0,2.2,0s1.6,0,2.2,0c1.9,0.1,3,1.1,3.1,3.1c0,0.5,0,0.8,0,2.2S17.3,13.6,17.3,14.2z"/>
</svg>
