<?xml version="1.0" encoding="utf-8"?>
<!-- Generator: Adobe Illustrator 24.2.3, SVG Export Plug-In . SVG Version: 6.00 Build 0)  -->
<svg version="1.1" id="Capa_1" xmlns="http://www.w3.org/2000/svg" xmlns:xlink="http://www.w3.org/1999/xlink" x="0px" y="0px"
	 viewBox="0 0 24 24" style="enable-background:new 0 0 24 24;" xml:space="preserve">
<style type="text/css">
	.st0{fill:#FFFFFF;}
	.st1{fill:#459FA5;}
</style>
<rect x="8" y="5.8" class="st0" width="8.6" height="12.6"/>
<path class="st1" d="M12,3c-5,0-9,4-9,9s4.1,9,9,9s9-4.1,9-9S17,3,12,3z M10,16H8v-5.8H10V16z M8.9,9.3c-0.5,0-1-0.5-1-1s0.5-1,1-1
	c0.5,0,1,0.5,1,1S9.6,9.3,8.9,9.3z M16.8,16h-1.9v-2.8c0-1.8-1.9-1.7-1.9,0V16H11v-5.8h1.9v1c0.9-1.5,3.9-1.7,3.9,1.4V16z"/>
</svg>
