<?xml version="1.0" encoding="utf-8"?>
<!-- Generator: Adobe Illustrator 24.2.3, SVG Export Plug-In . SVG Version: 6.00 Build 0)  -->
<svg version="1.1" id="Capa_1" xmlns="http://www.w3.org/2000/svg" xmlns:xlink="http://www.w3.org/1999/xlink" x="0px" y="0px"
	 viewBox="0 0 24 24" style="enable-background:new 0 0 24 24;" xml:space="preserve">
<style type="text/css">
	.st0{fill:#FFFFFF;}
	.st1{fill:#035C67;}
	.st2{fill:#054B54;}
	.st3{fill:#987009;}
</style>
<path class="st0" d="M-23.7,5.8v12.6h10.4V5.8H-23.7z M-21.8,7.3c0.5,0,1,0.5,1,1s-0.3,1-1,1c-0.5,0-1-0.5-1-1S-22.3,7.3-21.8,7.3z
	 M-20.7,16h-2v-5.8h2V16z M-13.9,16h-1.9v-2.8c0-1.8-1.9-1.7-1.9,0V16h-2v-5.8h1.9v1c0.9-1.5,3.9-1.7,3.9,1.4V16z"/>
<path class="st1" d="M-18.7,3c-5,0-9,4-9,9s4.1,9,9,9s9-4.1,9-9S-13.7,3-18.7,3z M-21.8,9.3c-0.5,0-1-0.5-1-1s0.5-1,1-1s1,0.5,1,1
	S-21.1,9.3-21.8,9.3z M-20.7,10.2V16h-2v-5.8H-20.7z M-13.9,16h-1.9v-2.8c0-1.8-1.9-1.7-1.9,0V16h-2v-5.8h1.9v1
	c0.9-1.5,3.9-1.7,3.9,1.4V16z"/>
<circle class="st0" cx="-21.8" cy="8.3" r="1"/>
<rect x="-22.7" y="10.2" class="st0" width="2" height="5.8"/>
<path class="st0" d="M-13.9,12.6V16h-1.9v-2.8c0-1.8-1.9-1.7-1.9,0V16h-2v-5.8h1.9v1C-16.9,9.7-13.9,9.5-13.9,12.6z"/>
<circle class="st0" cx="11.9" cy="12.1" r="8.2"/>
<path class="st2" d="M12,3.2c-4.9,0-8.9,4-8.9,8.9c0,4.9,4,8.9,8.9,8.9s8.9-4,8.9-8.9C20.9,7.2,16.9,3.2,12,3.2z M12,19.8
	c-4.2,0-7.7-3.4-7.7-7.7c0-4.2,3.4-7.7,7.7-7.7c4.2,0,7.7,3.4,7.7,7.7C19.7,16.3,16.2,19.8,12,19.8z"/>
<circle class="st3" cx="9" cy="8.3" r="1"/>
<rect x="8.1" y="10.2" class="st3" width="2" height="5.8"/>
<path class="st3" d="M16.9,12.6V16H15v-2.8c0-1.8-1.9-1.7-1.9,0V16h-2v-5.8H13v1C13.9,9.7,16.9,9.5,16.9,12.6z"/>
</svg>
