<?xml version="1.0" encoding="utf-8"?>
<!-- Generator: Adobe Illustrator 24.2.3, SVG Export Plug-In . SVG Version: 6.00 Build 0)  -->
<svg version="1.1" id="Capa_1" xmlns="http://www.w3.org/2000/svg" xmlns:xlink="http://www.w3.org/1999/xlink" x="0px" y="0px"
	 viewBox="0 0 24 24" style="enable-background:new 0 0 24 24;" xml:space="preserve">
<style type="text/css">
	.st0{fill:#FFFFFF;}
	.st1{fill:#8AC7CE;}
</style>
<rect x="8" y="5.8" class="st0" width="8.6" height="12.6"/>
<path class="st1" d="M12,3C7,3,3,7,3,12s4.1,9,9,9s9-4.1,9-9S17,3,12,3z M10.5,15H9v-4.5h1.5V15z M9.7,9.8C9.3,9.8,8.9,9.4,8.9,9
	s0.4-0.8,0.8-0.8s0.8,0.4,0.8,0.8S10.2,9.8,9.7,9.8z M15.8,15h-1.5v-2.2c0-1.4-1.5-1.3-1.5,0V15h-1.5v-4.5h1.5v0.8
	c0.7-1.2,3-1.3,3,1.1V15z"/>
</svg>
