<?xml version="1.0" encoding="utf-8"?>
<!-- Generator: Adobe Illustrator 24.2.3, SVG Export Plug-In . SVG Version: 6.00 Build 0)  -->
<svg version="1.1"
	 id="Capa_1" xmlns:cc="http://creativecommons.org/ns#" xmlns:dc="http://purl.org/dc/elements/1.1/" xmlns:inkscape="http://www.inkscape.org/namespaces/inkscape" xmlns:rdf="http://www.w3.org/1999/02/22-rdf-syntax-ns#" xmlns:sodipodi="http://sodipodi.sourceforge.net/DTD/sodipodi-0.dtd" xmlns:svg="http://www.w3.org/2000/svg"
	 xmlns="http://www.w3.org/2000/svg" xmlns:xlink="http://www.w3.org/1999/xlink" x="0px" y="0px" viewBox="0 0 300 300"
	 style="enable-background:new 0 0 300 300;" xml:space="preserve">
<style type="text/css">
	.st0{fill-rule:evenodd;clip-rule:evenodd;fill:#FFFFFF;}
</style>
<g transform="translate(0,-280.06664)">
	<path class="st0" d="M105.5,474.5c16.5,16.5,34.8,30.7,54.4,42.5c19.8,11.9,40.9,21.5,63.1,28.7l42.6-42.6l-47-47.1L187,487.6l0,0
		c-0.6,0.6-1.6,0.8-2.4,0.3c-19.6-11.3-37.5-24.3-53.1-39.5s-28.8-32.6-39.2-52.8c-0.5-0.8-0.4-1.9,0.3-2.5l31.6-31.6L77,314.4
		L34.3,357c7.2,22.2,16.8,43.4,28.7,63.1C74.8,439.8,89,458,105.5,474.5L105.5,474.5z"/>
</g>
</svg>
