<?xml version="1.0" encoding="utf-8"?>
<!-- Generator: Adobe Illustrator 24.2.3, SVG Export Plug-In . SVG Version: 6.00 Build 0)  -->
<svg version="1.1" id="Capa_1" xmlns="http://www.w3.org/2000/svg" xmlns:xlink="http://www.w3.org/1999/xlink" x="0px" y="0px"
	 viewBox="0 0 24 24" style="enable-background:new 0 0 24 24;" xml:space="preserve">
<style type="text/css">
	.st0{fill:#FFFFFF;}
	.st1{fill:#459FA5;}
</style>
<rect x="6.3" y="6.8" class="st0" width="11.9" height="10.4"/>
<path class="st1" d="M12,3c-5,0-9,4-9,9s4.1,9,9,9s9-4.1,9-9S17,3,12,3z M16.6,10.2c0.2,3-2.1,6.4-6.2,6.4c-1.2,0-2.3-0.4-3.3-1
	c1.1,0.2,2.3-0.2,3.2-0.9c-1,0-1.7-0.7-2-1.5c0.4,0.1,0.7,0.1,1,0c-1.1-0.2-1.8-1.1-1.7-2.1c0.3,0.2,0.6,0.2,1,0.3
	c-1-0.7-1.2-1.9-0.7-2.9c1.1,1.3,2.6,2.2,4.4,2.3C12,9.4,13,8.2,14.4,8.2c0.6,0,1.2,0.2,1.6,0.7c0.5-0.1,1-0.3,1.4-0.5
	c-0.2,0.5-0.5,0.9-1,1.2c0.5-0.1,0.8-0.2,1.2-0.4C17.3,9.5,17,9.9,16.6,10.2z"/>
</svg>
