<?xml version="1.0" encoding="utf-8"?>
<!-- Generator: Adobe Illustrator 24.2.3, SVG Export Plug-In . SVG Version: 6.00 Build 0)  -->
<svg version="1.1" id="Capa_1" xmlns="http://www.w3.org/2000/svg" xmlns:xlink="http://www.w3.org/1999/xlink" x="0px" y="0px"
	 viewBox="0 0 24 24" style="enable-background:new 0 0 24 24;" xml:space="preserve">
<style type="text/css">
	.st0{fill:#FFFFFF;}
	.st1{fill:#035C67;}
	.st2{fill:#987009;}
	.st3{fill:#054B54;}
</style>
<circle class="st0" cx="-17.3" cy="12" r="8.2"/>
<circle class="st0" cx="12" cy="12" r="8.2"/>
<path class="st0" d="M-23.3,6.8v10.4h11.9V6.8H-23.3z M-13,10.2c0.2,3-2.1,6.4-6.2,6.4c-1.2,0-2.3-0.4-3.3-1
	c1.1,0.2,2.3-0.2,3.2-0.9c-1,0-1.7-0.7-2-1.5c0.4,0.1,0.7,0.1,1,0c-1.1-0.2-1.8-1.1-1.7-2.1c0.3,0.2,0.6,0.2,1,0.3
	c-1-0.7-1.2-1.9-0.7-2.9c1.1,1.3,2.6,2.2,4.4,2.3c-0.3-1.4,0.7-2.6,2.1-2.6c0.6,0,1.2,0.2,1.6,0.7c0.5-0.1,1-0.3,1.4-0.5
	c-0.2,0.5-0.5,0.9-1,1.2c0.5-0.1,0.8-0.2,1.2-0.4C-12.3,9.5-12.6,9.9-13,10.2z"/>
<path class="st1" d="M-17.6,3c-5,0-9,4-9,9s4.1,9,9,9s9-4.1,9-9S-12.6,3-17.6,3z M-13,10.2c0.2,3-2.1,6.4-6.2,6.4
	c-1.2,0-2.3-0.4-3.3-1c1.1,0.2,2.3-0.2,3.2-0.9c-1,0-1.7-0.7-2-1.5c0.4,0.1,0.7,0.1,1,0c-1.1-0.2-1.8-1.1-1.7-2.1
	c0.3,0.2,0.6,0.2,1,0.3c-1-0.7-1.2-1.9-0.7-2.9c1.1,1.3,2.6,2.2,4.4,2.3c-0.3-1.4,0.7-2.6,2.1-2.6c0.6,0,1.2,0.2,1.6,0.7
	c0.5-0.1,1-0.3,1.4-0.5c-0.2,0.5-0.5,0.9-1,1.2c0.5-0.1,0.8-0.2,1.2-0.4C-12.3,9.5-12.6,9.9-13,10.2z"/>
<path class="st2" d="M16.7,10.2c0.2,3-2.1,6.4-6.2,6.4c-1.2,0-2.3-0.4-3.3-1c1.1,0.2,2.3-0.2,3.2-0.9c-1,0-1.7-0.7-2-1.5
	c0.4,0.1,0.7,0.1,1,0c-1.1-0.2-1.8-1.1-1.7-2.1c0.3,0.2,0.6,0.2,1,0.3c-1-0.7-1.2-1.9-0.7-2.9c1.1,1.3,2.6,2.2,4.4,2.3
	c-0.3-1.4,0.7-2.6,2.1-2.6c0.6,0,1.2,0.2,1.6,0.7c0.5-0.1,1-0.3,1.4-0.5c-0.2,0.5-0.5,0.9-1,1.2c0.5-0.1,0.8-0.2,1.2-0.4
	C17.4,9.4,17.1,9.9,16.7,10.2z"/>
<path class="st3" d="M12.1,3.1c-4.9,0-8.9,4-8.9,8.9c0,4.9,4,8.9,8.9,8.9s8.9-4,8.9-8.9C21,7.1,17,3.1,12.1,3.1z M12.1,19.7
	c-4.2,0-7.7-3.4-7.7-7.7c0-4.2,3.4-7.7,7.7-7.7c4.2,0,7.7,3.4,7.7,7.7C19.7,16.2,16.3,19.7,12.1,19.7z"/>
</svg>
