<?xml version="1.0" encoding="utf-8"?>
<!-- Generator: Adobe Illustrator 24.3.0, SVG Export Plug-In . SVG Version: 6.00 Build 0)  -->
<svg version="1.1" id="Capa_1" xmlns="http://www.w3.org/2000/svg" xmlns:xlink="http://www.w3.org/1999/xlink" x="0px" y="0px"
	 viewBox="0 0 24 24" style="enable-background:new 0 0 24 24;" xml:space="preserve">
<style type="text/css">
	.st0{fill:#054B54;}
	.st1{fill:#FFFFFF;}
	.st2{fill:#0DC143;}
</style>
<circle class="st0" cx="12" cy="11.9" r="8.7"/>
<circle class="st1" cx="12.1" cy="12" r="5.8"/>
<g transform="translate(0,-952.36218)">
	<g>
		<g>
			<path class="st2" d="M12.1,971.5c-1.4,0-2.7-0.4-3.8-1.1l-3,1.1l1-3.1c-0.8-1.2-1.2-2.5-1.2-4c0-3.9,3.2-7.1,7.1-7.1
				s7.1,3.2,7.1,7.1C19.3,968.3,16,971.5,12.1,971.5z M9.2,961.3c-0.1,0.1-0.2,0.2-0.3,0.4c-0.1,0.3-0.2,0.6-0.1,1
				c0.2,0.9,0.9,2.2,1.9,3.1c1,1,2.2,1.8,3.1,2c0.2,0,0.3,0.1,0.5,0.1s0.4,0,0.6-0.1c0.2-0.1,0.3-0.2,0.4-0.4l-1.3-0.8l-0.3,0.3
				c-0.2,0.2-0.4,0.2-0.6,0.2c-0.1,0-0.2,0-0.3-0.1c-1.3-0.6-2.3-1.6-3.2-3.1c-0.2-0.3-0.1-0.7,0.1-1l0.2-0.2L9.2,961.3z"/>
			<path class="st1" d="M12.1,957.6c3.7,0,6.7,3,6.7,6.7s-3,6.7-6.7,6.7c-1.4,0-2.5-0.4-3.6-1.1c-0.1,0-0.1-0.1-0.2-0.1H8.2
				l-2.3,0.8l0.7-2.3c0-0.1,0-0.2,0-0.3c-0.8-1.1-1.2-2.3-1.2-3.8C5.4,960.7,8.4,957.6,12.1,957.6 M14.3,968.2
				c0.3,0,0.6-0.1,0.8-0.2c0.3-0.2,0.6-0.5,0.8-1l-2-1.3l-0.5,0.5c-0.1,0.1-0.2,0.1-0.2,0.1h-0.1c-1.3-0.6-2.2-1.6-2.9-2.9
				c-0.1-0.1-0.1-0.3,0.1-0.4l0.5-0.5l-1.2-2.1l0,0c-0.5,0.2-0.8,0.5-0.9,0.8c-0.2,0.4-0.2,0.8-0.1,1.4c0.2,1.1,1,2.3,2.1,3.4
				c1.1,1.1,2.3,1.9,3.3,2.1C13.9,968.2,14.1,968.2,14.3,968.2 M12.1,956.7c-4.2,0-7.6,3.4-7.6,7.6c0,1.5,0.4,2.8,1.2,4.1l-0.6,2
				l-0.6,1.9l1.8-0.6l2-0.7c1.2,0.7,2.5,1.1,3.9,1.1c4.2,0,7.6-3.4,7.6-7.6C19.7,960.2,16.3,956.7,12.1,956.7L12.1,956.7z
				 M9.3,962.5L9.3,962.5c0-0.1,0-0.2,0-0.3V962.5C9.3,962.4,9.3,962.5,9.3,962.5L9.3,962.5z M13.9,967.2L13.9,967.2h0.3l0,0
				C14.2,967.2,14.1,967.2,13.9,967.2L13.9,967.2z"/>
		</g>
	</g>
</g>
</svg>
