<?xml version="1.0" encoding="utf-8"?>
<!-- Generator: Adobe Illustrator 24.3.0, SVG Export Plug-In . SVG Version: 6.00 Build 0)  -->
<svg version="1.1" id="Capa_1" xmlns="http://www.w3.org/2000/svg" xmlns:xlink="http://www.w3.org/1999/xlink" x="0px" y="0px"
	 viewBox="0 0 24 24" style="enable-background:new 0 0 24 24;" xml:space="preserve">
<style type="text/css">
	.st0{fill:#054B54;}
	.st1{fill:#FFFFFF;}
	.st2{fill:#035C67;}
	.st3{fill:#0DC143;}
	.st4{fill:#987009;}
</style>
<circle class="st0" cx="12" cy="12" r="8.7"/>
<circle class="st1" cx="12.1" cy="12" r="5.8"/>
<circle class="st1" cx="-17.3" cy="12" r="8.2"/>
<path class="st1" d="M-23.3,6.8v10.4h11.9V6.8H-23.3z M-13,10.2c0.2,3-2.1,6.4-6.2,6.4c-1.2,0-2.3-0.4-3.3-1
	c1.1,0.2,2.3-0.2,3.2-0.9c-1,0-1.7-0.7-2-1.5c0.4,0.1,0.7,0.1,1,0c-1.1-0.2-1.8-1.1-1.7-2.1c0.3,0.2,0.6,0.2,1,0.3
	c-1-0.7-1.2-1.9-0.7-2.9c1.1,1.3,2.6,2.2,4.4,2.3c-0.3-1.4,0.7-2.6,2.1-2.6c0.6,0,1.2,0.2,1.6,0.7c0.5-0.1,1-0.3,1.4-0.5
	c-0.2,0.5-0.5,0.9-1,1.2c0.5-0.1,0.8-0.2,1.2-0.4C-12.3,9.5-12.6,9.9-13,10.2z"/>
<path class="st2" d="M-17.6,3c-5,0-9,4-9,9s4.1,9,9,9s9-4.1,9-9S-12.6,3-17.6,3z M-13,10.2c0.2,3-2.1,6.4-6.2,6.4
	c-1.2,0-2.3-0.4-3.3-1c1.1,0.2,2.3-0.2,3.2-0.9c-1,0-1.7-0.7-2-1.5c0.4,0.1,0.7,0.1,1,0c-1.1-0.2-1.8-1.1-1.7-2.1
	c0.3,0.2,0.6,0.2,1,0.3c-1-0.7-1.2-1.9-0.7-2.9c1.1,1.3,2.6,2.2,4.4,2.3c-0.3-1.4,0.7-2.6,2.1-2.6c0.6,0,1.2,0.2,1.6,0.7
	c0.5-0.1,1-0.3,1.4-0.5c-0.2,0.5-0.5,0.9-1,1.2c0.5-0.1,0.8-0.2,1.2-0.4C-12.3,9.5-12.6,9.9-13,10.2z"/>
<g transform="translate(0,-952.36218)">
	<g>
		<g>
			<path class="st3" d="M12.1,971.7c-1.4,0-2.8-0.4-3.9-1.1l-3.1,1.1l1-3.2c-0.8-1.2-1.2-2.6-1.2-4.1c0-4,3.3-7.3,7.3-7.3
				s7.3,3.3,7.3,7.3S16.1,971.7,12.1,971.7z M9.1,961.2c-0.1,0.1-0.2,0.2-0.3,0.4c-0.1,0.3-0.2,0.6-0.1,1c0.2,0.9,0.9,2.2,1.9,3.2
				c1,1,2.2,1.8,3.2,2c0.2,0,0.3,0.1,0.5,0.1c0.2,0,0.4,0,0.6-0.1c0.2-0.1,0.3-0.2,0.4-0.4l-1.3-0.8l-0.3,0.3
				c-0.2,0.2-0.4,0.2-0.6,0.2c-0.1,0-0.2,0-0.3-0.1c-1.3-0.6-2.3-1.6-3.3-3.2c-0.2-0.3-0.1-0.7,0.1-1l0.2-0.2L9.1,961.2z"/>
			<path class="st1" d="M12.1,957.5c3.8,0,6.8,3.1,6.8,6.8s-3.1,6.8-6.8,6.8c-1.4,0-2.6-0.4-3.7-1.1c-0.1,0-0.1-0.1-0.2-0.1
				c0,0-0.1,0-0.1,0l-2.3,0.8l0.7-2.3c0-0.1,0-0.2,0-0.3c-0.8-1.1-1.2-2.4-1.2-3.9C5.3,960.6,8.3,957.5,12.1,957.5 M14.3,968.3
				c0.3,0,0.6-0.1,0.8-0.2c0.3-0.2,0.6-0.5,0.8-1l-2-1.3l-0.5,0.5c-0.1,0.1-0.2,0.1-0.2,0.1c0,0-0.1,0-0.1,0c-1.3-0.6-2.2-1.6-3-3
				c-0.1-0.1-0.1-0.3,0.1-0.4l0.5-0.5l-1.2-2.1v0c-0.5,0.2-0.8,0.5-0.9,0.8c-0.2,0.4-0.2,0.8-0.1,1.4c0.2,1.1,1,2.4,2.1,3.5
				c1.1,1.1,2.3,1.9,3.4,2.1C13.9,968.3,14.1,968.3,14.3,968.3 M12.1,956.5c-4.3,0-7.8,3.5-7.8,7.8c0,1.5,0.4,2.9,1.2,4.2l-0.6,2
				l-0.6,1.9l1.8-0.6l2-0.7c1.2,0.7,2.6,1.1,4,1.1c4.3,0,7.8-3.5,7.8-7.8S16.4,956.5,12.1,956.5L12.1,956.5z M9.2,962.5
				C9.2,962.5,9.2,962.5,9.2,962.5c0-0.1,0-0.2,0-0.3L9.2,962.5C9.2,962.4,9.2,962.5,9.2,962.5L9.2,962.5z M13.9,967.3
				c0,0,0.1-0.1,0.1-0.1l0.2,0.1c0,0,0,0,0,0C14.2,967.3,14.1,967.3,13.9,967.3L13.9,967.3z"/>
		</g>
	</g>
</g>
<circle class="st1" cx="57.6" cy="12" r="8.2"/>
<path class="st0" d="M57.7,3.1c-4.9,0-8.9,4-8.9,8.9s4,8.9,8.9,8.9s8.9-4,8.9-8.9S62.6,3.1,57.7,3.1z M57.7,19.7
	c-4.2,0-7.7-3.4-7.7-7.7c0-4.2,3.4-7.7,7.7-7.7c4.2,0,7.7,3.4,7.7,7.7C65.4,16.2,61.9,19.7,57.7,19.7z"/>
<circle class="st4" cx="54.7" cy="8.2" r="1"/>
<rect x="53.8" y="10.1" class="st4" width="2" height="5.8"/>
<path class="st4" d="M62.6,12.5v3.4h-1.9v-2.8c0-1.8-1.9-1.7-1.9,0v2.8h-2v-5.8h1.9v1C59.6,9.6,62.6,9.4,62.6,12.5z"/>
</svg>
