<?xml version="1.0" encoding="utf-8"?>
<!-- Generator: Adobe Illustrator 24.2.3, SVG Export Plug-In . SVG Version: 6.00 Build 0)  -->
<svg version="1.1" id="Capa_1" xmlns="http://www.w3.org/2000/svg" xmlns:xlink="http://www.w3.org/1999/xlink" x="0px" y="0px"
	 viewBox="0 0 300 300" style="enable-background:new 0 0 300 300;" xml:space="preserve">
<style type="text/css">
	.st0{fill:#987009;}
</style>
<g>
	<path class="st0" d="M221.13,103.6v-32c0-9.6-8-17.6-17.6-17.6c-7.6,0-14.4,4.8-16.8,12l0.4,127.6c2.8,6.4,9.2,10.8,16.4,10.8
		c10,0,17.6-8,17.6-17.6v-32c11.2-2,20-13.2,20-25.6C241.53,116.8,232.33,106,221.13,103.6z"/>
	<path class="st0" d="M134.73,174c-2.8-0.4-5.6-0.4-8-0.4h-32c-0.4,0-0.8,0-1.6,0l12,60c1.6,7.2,8,12.4,15.2,12.4h10
		c4.8,0,8.8-2,12-5.6c2.8-3.6,4-8.4,3.2-12.8L134.73,174z"/>
	<path class="st0" d="M126.33,93.6h-32c-20,0-36,16-36,36s16,36,36,36h32c19.6,0,38.4,7.2,52.8,20.8l-0.4-113.2
		C164.33,86.4,145.93,93.6,126.33,93.6z M110.73,144h-26.4c-2.4,0-4-1.6-4-4s1.6-4,4-4h26.4c2.4,0,4,1.6,4,4S113.13,144,110.73,144z
		 M110.73,122.8h-26.4c-2.4,0-4-1.6-4-4s1.6-4,4-4h26.4c2.4,0,4,1.6,4,4S113.13,122.8,110.73,122.8z"/>
</g>
</svg>
