<?xml version="1.0" encoding="utf-8"?>
<!-- Generator: Adobe Illustrator 24.2.3, SVG Export Plug-In . SVG Version: 6.00 Build 0)  -->
<svg version="1.1"
	 id="Capa_1" xmlns:cc="http://creativecommons.org/ns#" xmlns:dc="http://purl.org/dc/elements/1.1/" xmlns:inkscape="http://www.inkscape.org/namespaces/inkscape" xmlns:rdf="http://www.w3.org/1999/02/22-rdf-syntax-ns#" xmlns:sodipodi="http://sodipodi.sourceforge.net/DTD/sodipodi-0.dtd" xmlns:svg="http://www.w3.org/2000/svg"
	 xmlns="http://www.w3.org/2000/svg" xmlns:xlink="http://www.w3.org/1999/xlink" x="0px" y="0px" viewBox="0 0 300 300"
	 style="enable-background:new 0 0 300 300;" xml:space="preserve">
<style type="text/css">
	.st0{fill:#987009;}
</style>
<g transform="translate(0,-952.36218)">
	<path class="st0" d="M109.59,1015.34c-2.24,0-4.05,1.81-4.05,4.05v34.4c0,2.24,1.81,4.05,4.05,4.05c2.24,0,4.05-1.81,4.05-4.05
		v-34.4C113.63,1017.15,111.82,1015.34,109.59,1015.34z M190.54,1015.34c-2.24,0-4.05,1.81-4.05,4.05v34.4
		c0,2.24,1.81,4.05,4.05,4.05c2.24,0,4.05-1.81,4.05-4.05v-34.4C194.59,1017.15,192.77,1015.34,190.54,1015.34z M81.25,1027.48
		c-9,0-16.25,7.26-16.25,16.25v36.37h170v-36.37c0-9-7.26-16.25-16.25-16.25h-12.08h-8.03v17.27c2.48,2.22,4.05,5.45,4.05,9.04
		c0,6.71-5.44,12.14-12.14,12.14c-6.71,0-12.14-5.44-12.14-12.14c0-3.59,1.57-6.82,4.05-9.04v-17.27h-64.83v17.2
		c2.52,2.23,4.11,5.48,4.11,9.11c0,6.71-5.44,12.14-12.14,12.14c-6.71,0-12.14-5.44-12.14-12.14c0-3.56,1.54-6.76,3.98-8.98v-17.33
		H81.25z M65,1088.2v84.94c0,9,7.26,16.25,16.25,16.25h137.49c9,0,16.25-7.26,16.25-16.25v-84.94H65z"/>
</g>
</svg>
