<?xml version="1.0" encoding="utf-8"?>
<!-- Generator: Adobe Illustrator 24.2.3, SVG Export Plug-In . SVG Version: 6.00 Build 0)  -->
<svg version="1.1"
	 id="Capa_1" xmlns:cc="http://creativecommons.org/ns#" xmlns:dc="http://purl.org/dc/elements/1.1/" xmlns:inkscape="http://www.inkscape.org/namespaces/inkscape" xmlns:rdf="http://www.w3.org/1999/02/22-rdf-syntax-ns#" xmlns:sodipodi="http://sodipodi.sourceforge.net/DTD/sodipodi-0.dtd" xmlns:svg="http://www.w3.org/2000/svg"
	 xmlns="http://www.w3.org/2000/svg" xmlns:xlink="http://www.w3.org/1999/xlink" x="0px" y="0px" viewBox="0 0 300 300"
	 style="enable-background:new 0 0 300 300;" xml:space="preserve">
<style type="text/css">
	.st0{fill:#987009;}
</style>
<g transform="translate(0,-952.36218)">
	<path class="st0" d="M150,983.51c-2.74,0-4.95,2.22-4.95,4.95v19.81c0,2.74,2.22,4.95,4.95,4.95s4.95-2.22,4.95-4.95v-19.81
		C154.95,985.72,152.74,983.51,150,983.51z M79.97,1012.52c-1.27,0-2.52,0.5-3.48,1.47c-1.93,1.93-1.93,5.03,0,6.96l14.01,14.01
		c1.93,1.93,5.03,1.93,6.96,0c1.93-1.93,1.93-5.03,0-6.96l-14.01-14.01C82.49,1013.03,81.24,1012.52,79.97,1012.52z M220.03,1012.52
		c-1.27,0-2.51,0.5-3.48,1.47L202.54,1028c-1.93,1.93-1.93,5.03,0,6.96c1.93,1.93,5.03,1.93,6.96,0l14.01-14.01
		c1.93-1.93,1.93-5.03,0-6.96C222.54,1013.03,221.3,1012.52,220.03,1012.52L220.03,1012.52z M150,1028.08
		c-30.2,0-59.43,23.43-59.43,56.57c0,40.55,28.62,50.86,31.88,77.15h55.1c3.26-26.29,31.88-36.6,31.88-77.15
		C209.43,1051.5,180.2,1028.08,150,1028.08z M134.76,1043.09c0.03,0,0.05,0,0.08,0c0.13-0.01,0.26-0.01,0.39,0
		c2.74,0.01,4.94,2.24,4.93,4.98c-0.01,2.06-1.29,3.9-3.23,4.62c-12.07,4.55-21.13,15.23-23.45,28.24
		c-0.49,2.69-3.07,4.48-5.76,3.99c-2.69-0.49-4.48-3.07-3.99-5.76c2.93-16.47,14.33-29.9,29.64-35.67
		C133.81,1043.28,134.27,1043.15,134.76,1043.09L134.76,1043.09z M50.95,1082.55c-2.74,0-4.95,2.22-4.95,4.95s2.22,4.95,4.95,4.95
		h19.81c2.74,0,4.95-2.22,4.95-4.95s-2.22-4.95-4.95-4.95H50.95z M229.24,1082.55c-2.74,0-4.95,2.22-4.95,4.95s2.22,4.95,4.95,4.95
		h19.81c2.74,0,4.95-2.22,4.95-4.95s-2.22-4.95-4.95-4.95H229.24z M122.76,1171.7v9.9h54.48v-9.9H122.76z M122.76,1191.5v4.95
		c0,5.69,4.68,9.9,9.9,9.9h7.43v4.95c0,5.49,4.42,9.9,9.9,9.9s9.9-4.42,9.9-9.9v-4.95h7.43c5.23,0,9.9-4.21,9.9-9.9v-4.95H122.76z"
		/>
</g>
</svg>
