<?xml version="1.0" encoding="utf-8"?>
<!-- Generator: Adobe Illustrator 24.2.3, SVG Export Plug-In . SVG Version: 6.00 Build 0)  -->
<svg version="1.1" xmlns="http://www.w3.org/2000/svg" xmlns:xlink="http://www.w3.org/1999/xlink" x="0px" y="0px"
	 viewBox="0 0 300 300" style="enable-background:new 0 0 300 300;" xml:space="preserve">
<style type="text/css">
	.st0{fill:#987009;}
</style>
<g id="Capa_2">
</g>
<g id="Capa_1">
	<path class="st0" d="M240.47,68.01h-106.7c-3.03,0-5.45,2.42-5.45,5.45v38.12h8.47c0.81,0,1.41,0,2.22,0.2V78.7h96.01v85.32h-95.81
		v-18.35c-0.81,0-1.41,0.2-2.22,0.2h-8.47v23.6c0,3.03,2.42,5.45,5.45,5.45h28.84l-18.15,50.43c-1.01,2.82,0.4,5.85,3.23,6.86
		c0.61,0.2,1.21,0.4,1.82,0.4c2.22,0,4.24-1.41,5.04-3.63l19.57-54.06h26.42l19.16,53.85c1.01,2.82,4.03,4.24,6.86,3.23
		c2.82-1.01,4.24-4.03,3.23-6.86l-18.15-50.43h28.84c3.03,0,5.45-2.42,5.45-5.45V73.25C245.92,70.43,243.5,68.01,240.47,68.01z"/>
	<path class="st0" d="M141.61,128.52c0,3.83-3.23,7.06-7.06,7.06h-31.06l-27.81,9.32l-3.45,1.16c-2.42,5.45-4.85,12.31-6.26,18.36
		c-0.6,3.23-3.63,5.45-6.85,5.45c-0.61,0-1.01,0-1.62-0.21c-3.83-0.8-6.05-4.64-5.24-8.47c1.75-8.08,8.41-32.23,21.56-38.32
		c0.01-0.01,0.03-0.01,0.04-0.02c0.05-0.02,0.09-0.04,0.14-0.06c1.89-0.85,3.92-1.33,6.09-1.33h3.6c0.5,0.59,1.04,1.15,1.65,1.64
		c2.83,2.42,7.28,2.42,10.31,0c0.61-0.46,1.23-1.04,1.75-1.64h37.15C138.38,121.46,141.61,124.68,141.61,128.52z"/>
	<circle class="st0" cx="90.2" cy="101.08" r="16.34"/>
	<path class="st0" d="M182.98,92.61c-8.47,0-16.54,3.63-22.39,9.88c-5.65,6.25-8.47,14.93-7.46,23.4
		c1.61,14.12,12.91,25.21,27.03,26.42c0.81,0,1.82,0.2,2.62,0.2c7.87,0,15.53-3.03,21.18-8.67c1.41-1.41,1.41-3.43,0-4.84
		l-17.55-17.95V96.04C186.41,94.23,184.8,92.61,182.98,92.61z M196.5,141.02c-4.44,3.43-10.09,4.84-15.73,4.44
		c-10.69-1.01-19.57-9.68-20.78-20.37c-0.81-6.66,1.21-13.11,5.65-17.95c3.63-4.03,8.47-6.66,13.72-7.46v22.39
		c0,1.21,0.4,2.22,1.21,3.03L196.5,141.02z"/>
	<path class="st0" d="M193.68,90.19h-0.4c-0.61,0-1.21,0.4-1.21,1.21v22.79c0,0.61,0.4,1.21,1.21,1.21h26.83
		c0.61,0,1.21-0.61,1.01-1.21C219.29,100.48,207.79,90.19,193.68,90.19z"/>
	<path class="st0" d="M197.31,121.05c-1.01,0-1.41,1.21-0.81,1.82L211.63,138c0.4,0.4,1.21,0.4,1.61,0l0.2-0.2
		c4.24-4.24,7.06-9.68,7.87-15.53c0-0.61-0.4-1.21-1.01-1.21L197.31,121.05L197.31,121.05z"/>
	<path class="st0" d="M116.87,178.88c-9.7-18.19-11.72-33.75-11.92-42.85l-0.21-0.45l-6.6-14.12l-0.27-0.05
		c-0.15,0.19-0.3-0.14-0.47,0.05c-0.52,0.6-1.14,1.18-1.75,1.64c-3.03,2.42-7.48,2.42-10.31,0c-0.61-0.49-1.15-1.05-1.65-1.64
		c-0.33-0.39-0.65-0.79-0.97-1.19c-2.78,0.2-6.11,1.32-8.72,2.52c-0.05,0.02-0.09,0.04-0.14,0.06c-0.01,0.01-0.03,0.01-0.04,0.02
		c-3.56,1.91,0.06,18.02,2.27,18.02c0.57,0,0.23,1.69-0.41,4.01c-0.73,2.62-1.84,6.05-2.46,8.72c-1.57,7.38-7.48,21.42-11.12,28.29
		c-1.62,3.03,1.41,5.66,6.87,7.48l-8.28,35.98c-1.02,4.24,1.61,8.28,5.86,9.29c0.6,0.21,1.21,0.21,1.82,0.21
		c3.43,0,6.67-2.43,7.47-6.07l8.49-36.38c2.63,0.2,5.46,0.41,8.29,0.41l0.2,34.36c0,4.24,3.44,7.68,7.68,7.68
		c2.12,0,4.04-0.91,5.43-2.35s2.25-3.41,2.25-5.54l-0.2-35.97C115.66,188.99,120.11,185.15,116.87,178.88z"/>
	<path class="st0" d="M74,97.63c-0.2,1.01-0.2,1.82-0.2,2.83c0,9.09,7.28,16.37,16.37,16.37s16.37-7.28,16.37-16.37
		s-7.28-16.37-16.37-16.37c-1.82,0-3.44,0.4-5.05,0.81c-1.62-2.02-4.04-3.23-6.67-3.23c-4.65,0-8.49,3.84-8.49,8.49
		C69.76,93.39,71.57,96.22,74,97.63z"/>
</g>
</svg>
