<?xml version="1.0" encoding="utf-8"?>
<!-- Generator: Adobe Illustrator 24.2.3, SVG Export Plug-In . SVG Version: 6.00 Build 0)  -->
<svg version="1.1" id="Capa_1" xmlns="http://www.w3.org/2000/svg" xmlns:xlink="http://www.w3.org/1999/xlink" x="0px" y="0px"
	 viewBox="0 0 300 300" style="enable-background:new 0 0 300 300;" xml:space="preserve">
<style type="text/css">
	.st0{fill:#987009;}
</style>
<path class="st0" d="M99.24,207.04c5.84-5.84,8.59-13.6,8.3-21.27l51.14-15.12c1.85,4.22,4.33,8.2,7.46,11.84l-27.88,33.42
	c-3.93-1.98-8.28-3.05-12.81-3.05c-7.63,0-14.8,2.97-20.2,8.36c-11.14,11.14-11.14,29.26,0,40.39c5.4,5.4,12.57,8.37,20.2,8.37
	c7.63,0,14.8-2.98,20.2-8.37c10.02-10.02,10.99-25.67,2.99-36.83l27.8-33.31c7.59,4.9,16.41,7.56,25.66,7.56
	c12.67,0,24.59-4.94,33.55-13.9c18.5-18.5,18.5-48.6,0-67.11c-8.97-8.96-20.88-13.89-33.55-13.89c-8.95,0-17.5,2.51-24.92,7.11
	L147.9,76.18c8.8-11.2,8.05-27.5-2.26-37.81c-5.4-5.4-12.57-8.36-20.2-8.36s-14.8,2.97-20.2,8.36c-11.14,11.14-11.14,29.26,0,40.4
	c5.4,5.4,12.57,8.37,20.2,8.37c4.11,0,8.08-0.89,11.71-2.53l29.57,35.44c-3.1,3.47-5.6,7.27-7.5,11.31l-51.65-15.27
	c0.05-7.38-2.72-14.78-8.34-20.4c-5.4-5.4-12.57-8.36-20.2-8.36s-14.8,2.97-20.2,8.36c-11.14,11.14-11.14,29.26,0,40.39
	c5.4,5.4,12.57,8.37,20.2,8.37s14.8-2.98,20.2-8.37c2.04-2.04,3.7-4.32,4.99-6.76l51.02,15.08c-0.66,4.34-0.73,8.74-0.19,13.09
	l-51.27,15.16c-1.23-2.14-2.72-4.17-4.55-6c-5.4-5.4-12.57-8.36-20.2-8.36s-14.8,2.97-20.2,8.36c-11.14,11.14-11.14,29.26,0,40.39
	c5.4,5.4,12.57,8.37,20.2,8.37S93.84,212.44,99.24,207.04z M64.92,129.78c1.57-4.22,5.14-7.52,9.6-8.88
	c-3.26-1.65-5.48-5.03-5.48-8.93c0-5.53,4.47-10,10-10c5.52,0,10.01,4.47,10.01,10.01c0,3.89-2.23,7.27-5.48,8.92
	c4.46,1.35,8.02,4.66,9.6,8.88H64.92z M111.32,255.33c1.57-4.22,5.14-7.52,9.6-8.88c-3.26-1.65-5.48-5.03-5.48-8.93
	c0-5.53,4.47-10,10-10c5.52,0,10.01,4.47,10.01,10.01c0,3.89-2.23,7.27-5.48,8.92c4.46,1.35,8.02,4.66,9.6,8.88H111.32z
	 M194.57,159.94c-5.4-2.75-9.11-8.35-9.11-14.83c0-9.18,7.44-16.62,16.62-16.62c9.17,0,16.62,7.44,16.62,16.63
	c0,6.46-3.71,12.07-9.11,14.82c7.41,2.24,13.33,7.74,15.95,14.74h-46.93C181.24,167.68,187.16,162.19,194.57,159.94z M111.32,72.46
	c1.57-4.22,5.14-7.52,9.6-8.88c-3.26-1.65-5.48-5.02-5.48-8.93c0-5.52,4.47-10,10-10c5.52,0,10.01,4.48,10.01,10.01
	c0,3.89-2.23,7.27-5.48,8.92c4.46,1.35,8.02,4.66,9.6,8.88C139.57,72.46,111.32,72.46,111.32,72.46z M74.52,191.87
	c-3.26-1.65-5.48-5.03-5.48-8.93c0-5.53,4.47-10,10-10c5.52,0,10.01,4.47,10.01,10.01c0,3.89-2.23,7.27-5.48,8.92
	c4.46,1.35,8.02,4.66,9.6,8.88H64.92C66.49,196.53,70.06,193.22,74.52,191.87z"/>
</svg>
