<?xml version="1.0" encoding="utf-8"?>
<!-- Generator: Adobe Illustrator 24.2.3, SVG Export Plug-In . SVG Version: 6.00 Build 0)  -->
<svg version="1.1" xmlns="http://www.w3.org/2000/svg" xmlns:xlink="http://www.w3.org/1999/xlink" x="0px" y="0px"
	 viewBox="0 0 300 300" style="enable-background:new 0 0 300 300;" xml:space="preserve">
<style type="text/css">
	.st0{fill:#987009;}
</style>
<g id="Capa_2">
</g>
<g id="Capa_1">
	<g>
		<path class="st0" d="M137.89,123.66c-1.62,4.04-5.05,9.9-10.31,9.09c-5.05-0.81-16.37-2.63-24.05-3.64
			c-0.61,0.81-1.41,1.62-2.22,2.22c-3.03,2.43-7.48,2.43-10.31,0c-1.01-0.81-1.82-1.82-2.63-2.83c-2.83,0.2-5.66,0.81-8.29,2.02
			c-3.64,1.82-20.62,11.72-22.43,12.93c-1.82,1.01-3.03,2.83-3.44,4.65c-0.4,2.02,0,4.04,1.21,5.66l11.52,15.56
			c1.41,1.82,3.64,2.83,5.86,2.83c1.21,0,2.22-0.4,3.23-1.01c-2.02,5.66-4.65,12.13-8.29,19c-1.62,3.03,1.41,5.66,6.87,7.48
			l-8.29,35.98c-1.01,4.24,1.62,8.29,5.86,9.3c0.61,0.2,1.21,0.2,1.82,0.2c3.44,0,6.67-2.43,7.48-6.06l8.49-36.38
			c2.63,0.2,5.46,0.4,8.29,0.4l0.2,34.36c0,4.24,3.44,7.68,7.68,7.68l0,0c4.24,0,7.68-3.64,7.68-7.88l-0.2-35.98
			c7.68-2.02,12.13-5.86,8.89-12.13c-9.7-18.19-11.72-33.75-11.92-42.85c4.24,0.61,9.3,1.41,14.96,2.43
			c14.35,2.43,22.64-9.3,26.27-18.8L137.89,123.66z M78.87,161.86c-0.2-0.2-0.4-0.61-0.61-0.81l-6.67-9.09
			c3.64-2.02,7.28-4.24,10.11-5.86C81.3,150.14,80.69,155.39,78.87,161.86z"/>
		<path class="st0" d="M80.08,105.88c-0.2,1.01-0.2,1.82-0.2,2.83c0,9.09,7.28,16.37,16.37,16.37s16.37-7.28,16.37-16.37
			s-7.28-16.37-16.37-16.37c-1.82,0-3.44,0.4-5.05,0.81c-1.62-2.02-4.04-3.23-6.67-3.23c-4.65,0-8.49,3.84-8.49,8.49
			C75.84,101.63,77.66,104.46,80.08,105.88z"/>
		<path class="st0" d="M177.09,110.73c-1.82-0.2-3.64-0.4-5.46-0.4c-1.62,0-3.23-0.4-4.65-1.41c-2.63-1.62-4.04-4.85-3.64-7.88
			c0.61-5.46,6.06-8.69,10.91-7.07c0.81,0.2,1.62,0.61,2.43,1.21c1.41,1.01,3.03,2.02,4.65,2.83L187,80.61l-17.38-5.66
			c1.01-1.62,1.82-3.44,3.03-5.05c0.61-0.61,1.01-1.41,1.21-2.43c1.62-5.05-1.62-10.31-7.28-10.91c-3.03-0.4-6.06,1.21-7.88,3.84
			c-1.01,1.41-1.41,3.03-1.41,4.65c0,2.02-0.2,3.84-0.4,5.86l-17.38-5.66l-15.36,47.5l47.5,15.36L177.09,110.73z"/>
		<path class="st0" d="M246.01,130.13h-49.92v18.19c1.82-0.4,3.64-0.81,5.25-1.21c1.41-0.4,3.23-0.61,4.85-0.2
			c3.03,0.81,5.25,3.23,6.06,6.27c1.21,5.46-3.03,10.31-8.29,10.31c-1.01,0-1.82-0.2-2.63-0.4c-1.82-0.61-3.44-1.01-5.25-1.21v18.19
			h18.39c-0.4,1.82-0.81,3.84-1.41,5.66c-0.2,0.61-0.4,1.62-0.4,2.43c0,5.25,4.85,9.3,10.31,8.29c3.03-0.61,5.46-3.03,6.27-6.06
			c0.4-1.82,0.4-3.44-0.2-4.85c-0.61-1.82-1.01-3.64-1.41-5.66h18.39V130.13L246.01,130.13z"/>
		<path class="st0" d="M184.17,218.86c-5.05-1.41-9.09-5.46-10.31-10.51c-1.62-6.67,1.62-13.74,8.49-16.78
			c1.82-0.81,4.04-1.21,6.06-1.01c0.61,0,1.21,0,1.62,0.2v-10.51h-15.36c0.4-1.82,0.81-3.84,1.41-5.66c0.2-0.81,0.4-1.62,0.4-2.63
			c0-5.25-4.85-9.3-10.11-8.29c-3.03,0.61-5.46,3.03-6.27,5.86c-0.4,1.82-0.4,3.44,0.2,4.85c0.61,1.82,1.01,3.64,1.41,5.66h-15.36
			v49.92h43.86v-10.51c-0.81,0.2-1.41,0.2-2.22,0.2C186.59,219.46,185.38,219.26,184.17,218.86z"/>
		<path class="st0" d="M235.1,191.97c-1.41,5.05-5.46,9.09-10.51,10.31c-1.21,0.2-2.22,0.4-3.44,0.4c-8.08,0-14.55-6.47-14.55-14.55
			c0-0.81,0-1.41,0.2-2.22h-10.71v12.33c-2.02-0.4-3.84-0.81-5.66-1.41c-0.81-0.2-1.62-0.4-2.63-0.4c-5.25,0-9.3,4.65-8.29,10.11
			c0.61,3.03,2.83,5.66,5.86,6.47c1.82,0.4,3.44,0.4,5.05,0c1.82-0.61,3.64-1.01,5.66-1.41v18.39h49.92l0,0v-43.86H235.5
			C235.71,187.93,235.71,189.95,235.1,191.97z"/>
	</g>
</g>
</svg>
