<?xml version="1.0" encoding="utf-8"?>
<!-- Generator: Adobe Illustrator 24.2.3, SVG Export Plug-In . SVG Version: 6.00 Build 0)  -->
<svg version="1.1" id="Capa_1" xmlns="http://www.w3.org/2000/svg" xmlns:xlink="http://www.w3.org/1999/xlink" x="0px" y="0px"
	 viewBox="0 0 132 132" style="enable-background:new 0 0 132 132;" xml:space="preserve">
<style type="text/css">
	.st0{fill:#054B54;}
	.st1{fill:#987009;}
</style>
<path class="st0" d="M66.1,2.4C30.6,2.4,1.7,31.3,1.7,66.8c0,35.7,28.9,64.4,64.4,64.4s64.4-28.9,64.4-64.4
	C130.5,31.3,101.8,2.4,66.1,2.4z M66.1,122.3c-30.5,0-55.5-24.8-55.5-55.5c0-30.5,24.8-55.5,55.5-55.5c30.5,0,55.5,24.8,55.5,55.5
	C121.6,97.5,96.8,122.3,66.1,122.3z"/>
<g>
	<path class="st1" d="M102.2,66.8c0-10.3-4.5-19.6-11.5-26.2l-8,5.6c-2.7-2.1-5.8-3.9-9.1-4.9s-6.4-1.6-9.3-1.6
		c-4.3,0-7.6,1-10.3,2.7c-2.5,1.7-3.9,4.1-3.9,6.6c0,2.3,0.8,4.5,2.5,6.2c1.7,1.7,4.3,3.1,7.4,4.1l17.5,4.7c5,1.6,8.9,4.1,12,7.4
		c3.1,3.5,4.7,7.8,4.7,13c0,1.9-0.2,3.7-0.8,5.4C98.9,83.9,102.2,75.7,102.2,66.8z"/>
	<path class="st1" d="M44,83.7c3.1,4.1,6.6,7,10.5,8.7c3.7,1.7,7.6,2.5,11.5,2.5c5.2,0,9.5-1,12.8-2.9c3.1-1.9,4.7-4.5,4.7-7.4
		c0-2.3-0.8-4.3-2.3-6c-1.6-1.7-4.1-2.9-7.2-3.9l-16.3-4.7c-6-1.7-10.5-4.7-13.6-8.3c-3.1-3.7-4.7-8-4.7-12.6c0-3.3,0.8-6,2.1-8.7
		C34.5,47,30,56.3,30,66.8c0,8.2,2.7,15.7,7.4,21.7L44,83.7z"/>
</g>
</svg>
