<?xml version="1.0" encoding="utf-8"?>
<!-- Generator: Adobe Illustrator 24.3.0, SVG Export Plug-In . SVG Version: 6.00 Build 0)  -->
<svg version="1.1" id="Capa_1" xmlns="http://www.w3.org/2000/svg" xmlns:xlink="http://www.w3.org/1999/xlink" x="0px" y="0px"
	 viewBox="0 0 132 132" style="enable-background:new 0 0 132 132;" xml:space="preserve">
<style type="text/css">
	.st0{fill:#054B54;}
	.st1{fill:#987009;}
</style>
<path class="st0" d="M66.2,42.2c-13.6,0-24.6,11.1-24.6,24.6c0,13.7,11.1,24.6,24.6,24.6s24.6-11.1,24.6-24.6S79.9,42.2,66.2,42.2z
	 M66.2,88C54.5,88,45,78.5,45,66.8c0-11.7,9.5-21.2,21.2-21.2c11.7,0,21.2,9.5,21.2,21.2C87.4,78.5,77.9,88,66.2,88z"/>
<g>
	<path class="st1" d="M80,66.8c0-3.9-1.7-7.5-4.4-10l-3,2.2c-1-0.8-2.2-1.5-3.5-1.9c-1.3-0.4-2.4-0.6-3.6-0.6c-1.6,0-2.9,0.4-3.9,1
		c-1,0.7-1.5,1.6-1.5,2.5c0,0.9,0.3,1.7,1,2.4s1.6,1.2,2.8,1.6l6.7,1.8c1.9,0.6,3.4,1.6,4.6,2.8c1.2,1.3,1.8,3,1.8,5
		c0,0.7-0.1,1.4-0.3,2.1C78.7,73.3,80,70.2,80,66.8z"/>
	<path class="st1" d="M57.7,73.3c1.2,1.6,2.5,2.7,4,3.3c1.4,0.7,2.9,1,4.4,1c2,0,3.6-0.4,4.9-1.1c1.2-0.7,1.8-1.7,1.8-2.8
		c0-0.9-0.3-1.6-0.9-2.3c-0.6-0.7-1.6-1.1-2.7-1.5l-6.2-1.8c-2.3-0.7-4-1.8-5.2-3.2c-1.2-1.4-1.8-3-1.8-4.8c0-1.3,0.3-2.3,0.8-3.3
		c-2.7,2.5-4.4,6.1-4.4,10.1c0,3.1,1,6,2.8,8.3L57.7,73.3z"/>
</g>
</svg>
