<?xml version="1.0" encoding="utf-8"?>
<!-- Generator: Adobe Illustrator 24.3.0, SVG Export Plug-In . SVG Version: 6.00 Build 0)  -->
<svg version="1.1" id="Capa_1" xmlns="http://www.w3.org/2000/svg" xmlns:xlink="http://www.w3.org/1999/xlink" x="0px" y="0px"
	 viewBox="0 0 132 132" style="enable-background:new 0 0 132 132;" xml:space="preserve">
<style type="text/css">
	.st0{fill:#054B54;}
	.st1{fill:#987009;}
</style>
<path class="st0" d="M66.2,33.6C47.9,33.6,33,48.5,33,66.8C33,85.2,47.9,100,66.2,100s33.2-14.9,33.2-33.2
	C99.4,48.5,84.6,33.6,66.2,33.6z M66.2,95.4c-15.7,0-28.6-12.8-28.6-28.6c0-15.7,12.8-28.6,28.6-28.6c15.7,0,28.6,12.8,28.6,28.6
	C94.8,82.6,82,95.4,66.2,95.4z"/>
<path class="st1" d="M30.9,80.8h-9v0.1c0,4.6,3.8,8.4,8.4,8.4h5.3C33.7,86.7,32.1,83.8,30.9,80.8z"/>
<path class="st1" d="M28.3,66.3c0-2.9,0.4-5.7,1.1-8.5h-23V58c0,4.6,3.8,8.4,8.4,8.4L28.3,66.3L28.3,66.3z"/>
<path class="st1" d="M29.9,77.8c-0.8-2.7-1.3-5.5-1.5-8.5H14v0.1c0,4.6,3.8,8.4,8.4,8.4H29.9z"/>
<path class="st1" d="M103.1,57.9c0.7,2.7,1,5.6,1.1,8.5h13.6c4.6,0,8.4-3.8,8.4-8.4v-0.1H103.1z"/>
<path class="st1" d="M96.8,89.3h5.3c4.6,0,8.4-3.8,8.4-8.4v-0.1h-9C100.3,83.8,98.7,86.7,96.8,89.3z"/>
<path class="st1" d="M102.6,77.8h7.5c4.6,0,8.4-3.8,8.4-8.4v-0.1h-14.3C103.9,72.3,103.4,75.1,102.6,77.8z"/>
<g>
	<path class="st1" d="M84.8,66.8c0-5.3-2.3-10.1-5.9-13.5l-4.1,2.9c-1.4-1.1-3-2-4.7-2.5s-3.3-0.8-4.8-0.8c-2.2,0-3.9,0.5-5.3,1.4
		c-1.3,0.9-2,2.1-2,3.4c0,1.2,0.4,2.3,1.3,3.2c0.9,0.9,2.2,1.6,3.8,2.1l9,2.4c2.6,0.8,4.6,2.1,6.2,3.8c1.6,1.8,2.4,4,2.4,6.7
		c0,1-0.1,1.9-0.4,2.8C83.1,75.6,84.8,71.4,84.8,66.8z"/>
	<path class="st1" d="M54.8,75.5c1.6,2.1,3.4,3.6,5.4,4.5c1.9,0.9,3.9,1.3,5.9,1.3c2.7,0,4.9-0.5,6.6-1.5c1.6-1,2.4-2.3,2.4-3.8
		c0-1.2-0.4-2.2-1.2-3.1c-0.8-0.9-2.1-1.5-3.7-2l-8.4-2.4c-3.1-0.9-5.4-2.4-7-4.3s-2.4-4.1-2.4-6.5c0-1.7,0.4-3.1,1.1-4.5
		c-3.6,3.4-5.9,8.2-5.9,13.6c0,4.2,1.4,8.1,3.8,11.2L54.8,75.5z"/>
</g>
</svg>
