<?xml version="1.0" encoding="utf-8"?>
<!-- Generator: Adobe Illustrator 24.2.3, SVG Export Plug-In . SVG Version: 6.00 Build 0)  -->
<svg version="1.1" id="Capa_1" xmlns="http://www.w3.org/2000/svg" xmlns:xlink="http://www.w3.org/1999/xlink" x="0px" y="0px"
	 viewBox="0 0 448.6 133.4" style="enable-background:new 0 0 448.6 133.4;" xml:space="preserve">
<style type="text/css">
	.st0{fill:#FFFFFF;}
	.st1{fill:#AC8705;}
</style>
<g>
	<path class="st0" d="M59,51.9c-2.3-1.8-4.8-3.2-7.5-4c-2.7-0.8-5.3-1.2-7.7-1.2c-3.5,0-6.3,0.8-8.4,2.2c-2.1,1.5-3.2,3.3-3.2,5.5
		c0,2,0.7,3.7,2.1,5.2c1.4,1.5,3.5,2.6,6.1,3.4l14.3,3.9c4.1,1.3,7.4,3.3,9.9,6.1c2.5,2.8,3.8,6.4,3.8,10.7c0,5-2.1,9.2-6.4,12.4
		c-4.3,3.3-9.9,4.9-16.9,4.9c-5.7,0-10.7-1.2-14.9-3.4s-7.8-5.4-10.6-9.4l7.4-5.4c2.6,3.4,5.5,5.8,8.6,7.1s6.3,2.1,9.5,2.1
		c4.4,0,7.9-0.8,10.5-2.4c2.6-1.6,3.9-3.6,3.9-6c0-1.9-0.7-3.6-2-5s-3.3-2.4-5.9-3.2l-13.4-3.8c-4.9-1.5-8.6-3.8-11.1-6.8
		s-3.8-6.5-3.8-10.4c0-4.9,1.9-8.9,5.7-12s8.8-4.7,14.8-4.7c3.8,0,7.8,0.7,11.8,2.2c4.1,1.5,7.8,3.7,11.1,6.5L59,51.9z"/>
	<path class="st0" d="M84.8,76.5V39.4h9.1v37.1c0,4.3,1.5,7.9,4.5,10.9s6.6,4.5,10.9,4.5c4.3,0,7.9-1.5,10.9-4.5
		c3-3,4.5-6.6,4.5-10.9V39.4h9v37.1c0,6.8-2.4,12.5-7.2,17.3S116,101,109.3,101c-6.8,0-12.5-2.4-17.3-7.2
		C87.2,89,84.8,83.3,84.8,76.5z"/>
	<path class="st0" d="M176.3,39.4c6.2,0,11.5,2.2,16,6.6c4.4,4.4,6.6,9.7,6.6,16c0,6.3-2.2,11.6-6.6,16c-4.4,4.4-9.7,6.6-16,6.6
		h-13.6v14.5h-9.1V39.4H176.3z M162.6,75.6h13.6c3.7,0,6.9-1.3,9.6-4c2.6-2.7,4-5.9,4-9.6c0-3.7-1.3-6.9-4-9.5c-2.6-2.7-5.8-4-9.6-4
		h-13.6V75.6z"/>
	<path class="st0" d="M254.9,39.4v9H226v16.3h21.7v9.1H226v16.3h28.9v9.1h-38V39.4H254.9z"/>
	<path class="st0" d="M299.4,84.4c-1.2,0.2-2.5,0.3-3.8,0.3h-13.6v14.5h-9V39.4h22.6c6.2,0,11.5,2.2,16,6.6s6.6,9.7,6.6,16
		c0,6.3-2.2,11.6-6.6,16c-1.2,1.2-2.5,2.2-3.8,3.1l9,18h-10.1L299.4,84.4z M282.1,75.6h13.6c3.7,0,6.9-1.3,9.5-4s4-5.9,4-9.6
		c0-3.7-1.3-6.9-4-9.5c-2.6-2.7-5.8-4-9.5-4h-13.6V75.6z"/>
	<path class="st0" d="M342,48.5h-16.3v-9h41.6v9H351v50.7h-9V48.5z"/>
	<path class="st0" d="M380,76.5V39.4h9v37.1c0,4.3,1.5,7.9,4.5,10.9s6.6,4.5,10.9,4.5c4.3,0,7.9-1.5,10.9-4.5c3-3,4.5-6.6,4.5-10.9
		V39.4h9v37.1c0,6.8-2.4,12.5-7.2,17.3s-10.5,7.2-17.2,7.2c-6.8,0-12.5-2.4-17.3-7.2C382.4,89,380,83.3,380,76.5z M413.7,15.9
		l-5.8,16.3h-8l4.3-16.3C404.2,15.9,413.7,15.9,413.7,15.9z"/>
</g>
<rect x="176.9" y="118.4" class="st1" width="94.8" height="4.1"/>
</svg>
