<?xml version="1.0" encoding="utf-8"?>
<!-- Generator: Adobe Illustrator 24.2.3, SVG Export Plug-In . SVG Version: 6.00 Build 0)  -->
<svg version="1.1" id="Capa_1" xmlns="http://www.w3.org/2000/svg" xmlns:xlink="http://www.w3.org/1999/xlink" x="0px" y="0px"
	 viewBox="0 0 448.56 133.39" style="enable-background:new 0 0 448.56 133.39;" xml:space="preserve">
<style type="text/css">
	.st0{fill:#035C67;}
	.st1{fill:#AC8705;}
</style>
<g>
	<path class="st0" d="M59,51.89c-2.27-1.83-4.75-3.16-7.46-3.98c-2.7-0.82-5.26-1.23-7.67-1.23c-3.47,0-6.27,0.75-8.4,2.24
		c-2.12,1.5-3.18,3.33-3.18,5.5c0,1.98,0.71,3.7,2.14,5.18c1.42,1.47,3.46,2.59,6.12,3.37l14.33,3.91c4.1,1.26,7.41,3.28,9.92,6.08
		c2.51,2.8,3.76,6.37,3.76,10.71c0,5.02-2.12,9.16-6.37,12.41c-4.25,3.26-9.89,4.89-16.94,4.89c-5.69,0-10.66-1.15-14.91-3.44
		c-4.25-2.29-7.79-5.44-10.64-9.45l7.38-5.36c2.61,3.38,5.46,5.75,8.58,7.13s6.26,2.06,9.45,2.06c4.39,0,7.89-0.81,10.5-2.42
		c2.61-1.62,3.91-3.63,3.91-6.04c0-1.93-0.65-3.58-1.95-4.96c-1.3-1.38-3.28-2.42-5.94-3.15l-13.39-3.76
		c-4.87-1.5-8.58-3.76-11.11-6.8c-2.53-3.04-3.8-6.51-3.8-10.42c0-4.87,1.91-8.88,5.72-12.02c3.81-3.14,8.76-4.7,14.84-4.7
		c3.81,0,7.76,0.74,11.83,2.21c4.08,1.47,7.78,3.66,11.11,6.55L59,51.89z"/>
	<path class="st0" d="M84.84,76.5V39.44h9.05V76.5c0,4.29,1.5,7.94,4.49,10.93c2.99,2.99,6.63,4.49,10.93,4.49
		c4.25,0,7.86-1.5,10.86-4.49c2.99-2.99,4.49-6.63,4.49-10.93V39.44h9.05V76.5c0,6.76-2.39,12.52-7.17,17.3
		c-4.78,4.78-10.52,7.17-17.23,7.17c-6.76,0-12.52-2.39-17.3-7.17C87.23,89.02,84.84,83.26,84.84,76.5z"/>
	<path class="st0" d="M176.26,39.44c6.22,0,11.54,2.21,15.96,6.62c4.42,4.42,6.62,9.73,6.62,15.96c0,6.27-2.21,11.62-6.62,16.03
		c-4.42,4.42-9.74,6.62-15.96,6.62h-13.61v14.48h-9.05V39.44H176.26z M162.65,75.63h13.61c3.72,0,6.9-1.33,9.55-3.98
		c2.65-2.65,3.98-5.86,3.98-9.63c0-3.71-1.33-6.9-3.98-9.55c-2.65-2.65-5.84-3.98-9.55-3.98h-13.61V75.63z"/>
	<path class="st0" d="M254.93,39.44v9.05h-28.95v16.29h21.71v9.05h-21.71v16.29h28.95v9.05h-38V39.44H254.93z"/>
	<path class="st0" d="M299.44,84.39c-1.21,0.19-2.46,0.29-3.76,0.29h-13.61v14.48h-9.05V39.44h22.65c6.22,0,11.54,2.21,15.96,6.62
		s6.62,9.73,6.62,15.96c0,6.27-2.2,11.61-6.59,16c-1.21,1.21-2.49,2.24-3.84,3.11l9.05,18.02h-10.06L299.44,84.39z M282.07,75.63
		h13.61c3.71,0,6.9-1.33,9.55-3.98c2.65-2.65,3.98-5.86,3.98-9.63c0-3.71-1.33-6.9-3.98-9.55c-2.65-2.65-5.84-3.98-9.55-3.98h-13.61
		V75.63z"/>
	<path class="st0" d="M342,48.49h-16.29v-9.05h41.62v9.05h-16.29v50.67H342V48.49z"/>
	<path class="st0" d="M380,76.5V39.44h9.05V76.5c0,4.29,1.5,7.94,4.49,10.93c2.99,2.99,6.63,4.49,10.93,4.49
		c4.25,0,7.86-1.5,10.86-4.49c2.99-2.99,4.49-6.63,4.49-10.93V39.44h9.05V76.5c0,6.76-2.39,12.52-7.17,17.3
		c-4.78,4.78-10.52,7.17-17.23,7.17c-6.76,0-12.52-2.39-17.3-7.17C382.39,89.02,380,83.26,380,76.5z M413.66,15.92l-5.79,16.29
		h-8.03l4.34-16.29H413.66z"/>
</g>
<rect x="176.88" y="118.41" class="st1" width="94.81" height="4.11"/>
</svg>
