<?xml version="1.0" encoding="utf-8"?>
<!-- Generator: Adobe Illustrator 24.2.3, SVG Export Plug-In . SVG Version: 6.00 Build 0)  -->
<svg version="1.1" id="Capa_1" xmlns="http://www.w3.org/2000/svg" xmlns:xlink="http://www.w3.org/1999/xlink" x="0px" y="0px"
	 viewBox="0 0 492.78 229.39" style="enable-background:new 0 0 492.78 229.39;" xml:space="preserve">
<style type="text/css">
	.st0{fill:#054B54;}
	.st1{fill:#987009;}
</style>
<g>
	<g>
		<path class="st0" d="M102.81,193.89l-4.88,8.45v4.63h-1.98v-4.63l-4.88-8.45h2.3l3.58,6.2l3.57-6.2H102.81z"/>
		<path class="st0" d="M115.85,195.52c1.35,1.35,2.03,2.99,2.03,4.9c0,1.92-0.68,3.56-2.03,4.92c-1.35,1.35-2.99,2.03-4.9,2.03
			c-1.92,0-3.56-0.68-4.92-2.03c-1.35-1.35-2.03-2.99-2.03-4.92c0-1.91,0.68-3.55,2.03-4.9s2.99-2.03,4.92-2.03
			C112.86,193.49,114.49,194.17,115.85,195.52z M110.95,195.48c-1.37,0-2.55,0.48-3.51,1.45c-0.97,0.97-1.45,2.13-1.45,3.5
			c0,1.38,0.48,2.54,1.45,3.51s2.14,1.45,3.51,1.45c1.36,0,2.53-0.48,3.5-1.45c0.97-0.97,1.45-2.14,1.45-3.51
			c0-1.36-0.48-2.53-1.45-3.5C113.47,195.96,112.31,195.48,110.95,195.48z"/>
		<path class="st0" d="M121.05,202.01v-8.12h1.98v8.12c0,0.94,0.33,1.74,0.98,2.39c0.66,0.66,1.45,0.98,2.39,0.98
			c0.93,0,1.72-0.33,2.38-0.98c0.66-0.66,0.98-1.45,0.98-2.39v-8.12h1.98v8.12c0,1.48-0.52,2.74-1.57,3.79s-2.31,1.57-3.77,1.57
			c-1.48,0-2.74-0.52-3.79-1.57C121.57,204.75,121.05,203.49,121.05,202.01z"/>
		<path class="st0" d="M141.51,203.74c-0.26,0.04-0.54,0.06-0.82,0.06h-2.98v3.17h-1.98v-13.08h4.96c1.36,0,2.53,0.48,3.5,1.45
			c0.97,0.97,1.45,2.13,1.45,3.5c0,1.38-0.48,2.54-1.44,3.5c-0.26,0.26-0.54,0.49-0.84,0.68l1.98,3.95h-2.2L141.51,203.74z
			 M137.7,201.82h2.98c0.81,0,1.51-0.29,2.09-0.87s0.87-1.28,0.87-2.11c0-0.81-0.29-1.51-0.87-2.09c-0.58-0.58-1.28-0.87-2.09-0.87
			h-2.98V201.82z"/>
		<path class="st0" d="M164.94,196.62c-0.5-0.4-1.04-0.69-1.63-0.87c-0.59-0.18-1.15-0.27-1.68-0.27c-0.76,0-1.37,0.16-1.84,0.49
			c-0.47,0.33-0.7,0.73-0.7,1.21c0,0.43,0.16,0.81,0.47,1.13c0.31,0.32,0.76,0.57,1.34,0.74l3.14,0.86c0.9,0.28,1.62,0.72,2.17,1.33
			c0.55,0.61,0.82,1.4,0.82,2.35c0,1.1-0.47,2.01-1.4,2.72s-2.17,1.07-3.71,1.07c-1.25,0-2.34-0.25-3.27-0.75
			c-0.93-0.5-1.71-1.19-2.33-2.07l1.62-1.17c0.57,0.74,1.2,1.26,1.88,1.56c0.68,0.3,1.37,0.45,2.07,0.45c0.96,0,1.73-0.18,2.3-0.53
			c0.57-0.35,0.86-0.8,0.86-1.32c0-0.42-0.14-0.79-0.43-1.09c-0.29-0.3-0.72-0.53-1.3-0.69l-2.93-0.82
			c-1.07-0.33-1.88-0.83-2.43-1.49s-0.83-1.43-0.83-2.28c0-1.07,0.42-1.95,1.25-2.63c0.83-0.69,1.92-1.03,3.25-1.03
			c0.83,0,1.7,0.16,2.59,0.48c0.89,0.32,1.71,0.8,2.43,1.43L164.94,196.62z"/>
		<path class="st0" d="M181.66,195.52c1.35,1.35,2.03,2.99,2.03,4.9c0,1.92-0.68,3.56-2.03,4.92c-1.35,1.35-2.99,2.03-4.9,2.03
			c-1.92,0-3.56-0.68-4.92-2.03c-1.35-1.35-2.03-2.99-2.03-4.92c0-1.91,0.68-3.55,2.03-4.9s2.99-2.03,4.92-2.03
			C178.67,193.49,180.31,194.17,181.66,195.52z M176.76,195.48c-1.37,0-2.55,0.48-3.51,1.45c-0.97,0.97-1.45,2.13-1.45,3.5
			c0,1.38,0.48,2.54,1.45,3.51s2.14,1.45,3.51,1.45c1.36,0,2.53-0.48,3.5-1.45c0.97-0.97,1.45-2.14,1.45-3.51
			c0-1.36-0.48-2.53-1.45-3.5C179.29,195.96,178.12,195.48,176.76,195.48z"/>
		<path class="st0" d="M196.73,204.04l1.44,1.36c-1.34,1.31-2.96,1.97-4.84,1.97c-1.92,0-3.56-0.68-4.92-2.03
			c-1.35-1.35-2.03-2.99-2.03-4.92c0-1.91,0.68-3.55,2.03-4.9s2.99-2.03,4.92-2.03c1.91,0,3.55,0.68,4.9,2.03l-1.41,1.4
			c-0.96-0.96-2.13-1.44-3.49-1.44c-1.37,0-2.55,0.48-3.51,1.45c-0.97,0.97-1.45,2.13-1.45,3.5c0,1.38,0.48,2.54,1.45,3.51
			s2.14,1.45,3.51,1.45C194.64,205.39,195.77,204.94,196.73,204.04z"/>
		<path class="st0" d="M203.83,193.89v13.08h-1.98v-13.08H203.83z"/>
		<path class="st0" d="M217.26,204.99h-7.52l-0.92,1.98h-2.19l6.11-13.08h1.52l6.14,13.08h-2.22L217.26,204.99z M216.34,203.01
			l-2.82-6.04l-2.82,6.04H216.34z"/>
		<path class="st0" d="M223.26,193.89h1.98v11.1h5.95v1.98h-7.93V193.89z"/>
		<path class="st0" d="M247.11,203.41l-4.03-5.58v9.15h-1.98v-13.08h1.59l5.17,7.14l5.15-7.14h1.59v13.08h-1.98v-9.15l-4.03,5.58
			H247.11z"/>
		<path class="st0" d="M267.27,193.89v1.98h-6.34v3.57h4.76v1.98h-4.76v3.57h6.34v1.98h-8.33v-13.08H267.27z"/>
		<path class="st0" d="M280.83,195.81c1.27,1.28,1.91,2.82,1.91,4.62c0,1.81-0.64,3.35-1.91,4.63s-2.81,1.92-4.62,1.92h-5.38v-13.08
			h5.38C278.02,193.89,279.56,194.53,280.83,195.81z M276.21,195.87h-3.39v9.12h3.39c1.26,0,2.33-0.44,3.22-1.33
			c0.89-0.89,1.33-1.97,1.33-3.24c0-1.26-0.44-2.33-1.33-3.22C278.54,196.32,277.47,195.87,276.21,195.87z"/>
		<path class="st0" d="M288.28,193.89v13.08h-1.98v-13.08H288.28z"/>
		<path class="st0" d="M301.71,204.99h-7.52l-0.92,1.98h-2.19l6.11-13.08h1.52l6.14,13.08h-2.22L301.71,204.99z M300.79,203.01
			l-2.82-6.04l-2.82,6.04H300.79z"/>
		<path class="st0" d="M320.2,193.89c1.36,0,2.53,0.48,3.5,1.45c0.97,0.97,1.45,2.13,1.45,3.5c0,1.38-0.48,2.55-1.45,3.51
			c-0.97,0.97-2.13,1.45-3.5,1.45h-2.98v3.17h-1.98v-13.08H320.2z M317.22,201.82h2.98c0.81,0,1.51-0.29,2.09-0.87
			c0.58-0.58,0.87-1.28,0.87-2.11c0-0.81-0.29-1.51-0.87-2.09c-0.58-0.58-1.28-0.87-2.09-0.87h-2.98V201.82z"/>
		<path class="st0" d="M336.21,204.99h-7.52l-0.92,1.98h-2.19l6.11-13.08h1.52l6.14,13.08h-2.22L336.21,204.99z M335.29,203.01
			l-2.82-6.04l-2.82,6.04H335.29z"/>
		<path class="st0" d="M347.99,203.74c-0.26,0.04-0.54,0.06-0.82,0.06h-2.98v3.17h-1.98v-13.08h4.96c1.36,0,2.53,0.48,3.5,1.45
			c0.97,0.97,1.45,2.13,1.45,3.5c0,1.38-0.48,2.54-1.44,3.5c-0.26,0.26-0.54,0.49-0.84,0.68l1.98,3.95h-2.2L347.99,203.74z
			 M344.18,201.82h2.98c0.81,0,1.51-0.29,2.09-0.87c0.58-0.58,0.87-1.28,0.87-2.11c0-0.81-0.29-1.51-0.87-2.09
			c-0.58-0.58-1.28-0.87-2.09-0.87h-2.98V201.82z"/>
		<path class="st0" d="M356.92,195.87h-3.57v-1.98h9.12v1.98h-3.57v11.1h-1.98V195.87z"/>
		<path class="st0" d="M373.57,202.8v-8.91h1.98v13.08h-1.3l-7.03-9.15v9.15h-1.98v-13.08h1.47L373.57,202.8z"/>
		<path class="st0" d="M388.24,193.89v1.98h-6.34v3.57h4.76v1.98h-4.76v3.57h6.34v1.98h-8.33v-13.08H388.24z"/>
		<path class="st0" d="M397.6,203.74c-0.26,0.04-0.54,0.06-0.82,0.06h-2.98v3.17h-1.98v-13.08h4.96c1.36,0,2.53,0.48,3.5,1.45
			c0.97,0.97,1.45,2.13,1.45,3.5c0,1.38-0.48,2.54-1.44,3.5c-0.26,0.26-0.54,0.49-0.84,0.68l1.98,3.95h-2.2L397.6,203.74z
			 M393.79,201.82h2.98c0.81,0,1.51-0.29,2.09-0.87c0.58-0.58,0.87-1.28,0.87-2.11c0-0.81-0.29-1.51-0.87-2.09
			c-0.58-0.58-1.28-0.87-2.09-0.87h-2.98V201.82z"/>
	</g>
	<g>
		<path class="st0" d="M81.11,106.67c-2.27-1.83-4.75-3.16-7.46-3.98c-2.7-0.82-5.26-1.23-7.67-1.23c-3.47,0-6.27,0.75-8.4,2.24
			c-2.12,1.5-3.18,3.33-3.18,5.5c0,1.98,0.71,3.7,2.14,5.18c1.42,1.47,3.46,2.59,6.12,3.37l14.33,3.91c4.1,1.26,7.41,3.28,9.92,6.08
			c2.51,2.8,3.76,6.37,3.76,10.71c0,5.02-2.12,9.16-6.37,12.41c-4.25,3.26-9.89,4.89-16.94,4.89c-5.69,0-10.66-1.15-14.91-3.44
			c-4.25-2.29-7.79-5.44-10.64-9.45l7.38-5.36c2.61,3.38,5.46,5.75,8.58,7.13s6.26,2.06,9.45,2.06c4.39,0,7.89-0.81,10.5-2.42
			c2.61-1.62,3.91-3.63,3.91-6.04c0-1.93-0.65-3.58-1.95-4.96c-1.3-1.38-3.28-2.42-5.94-3.15l-13.39-3.76
			c-4.87-1.5-8.58-3.76-11.11-6.8c-2.53-3.04-3.8-6.51-3.8-10.42c0-4.87,1.91-8.88,5.72-12.02c3.81-3.14,8.76-4.7,14.84-4.7
			c3.81,0,7.76,0.74,11.83,2.21c4.08,1.47,7.78,3.66,11.11,6.55L81.11,106.67z"/>
		<path class="st0" d="M106.95,131.28V94.22H116v37.06c0,4.29,1.5,7.94,4.49,10.93c2.99,2.99,6.63,4.49,10.93,4.49
			c4.25,0,7.86-1.5,10.86-4.49c2.99-2.99,4.49-6.63,4.49-10.93V94.22h9.05v37.06c0,6.76-2.39,12.52-7.17,17.3
			c-4.78,4.78-10.52,7.17-17.23,7.17c-6.76,0-12.52-2.39-17.3-7.17C109.34,143.8,106.95,138.03,106.95,131.28z"/>
		<path class="st0" d="M198.37,94.22c6.22,0,11.54,2.21,15.96,6.62c4.42,4.42,6.62,9.73,6.62,15.96c0,6.27-2.21,11.62-6.62,16.03
			c-4.42,4.42-9.74,6.62-15.96,6.62h-13.61v14.48h-9.05V94.22H198.37z M184.76,130.41h13.61c3.72,0,6.9-1.33,9.55-3.98
			c2.65-2.65,3.98-5.86,3.98-9.63c0-3.71-1.33-6.9-3.98-9.55c-2.65-2.65-5.84-3.98-9.55-3.98h-13.61V130.41z"/>
		<path class="st0" d="M277.04,94.22v9.05h-28.95v16.29h21.71v9.05h-21.71v16.29h28.95v9.05h-38V94.22H277.04z"/>
		<path class="st0" d="M321.55,139.17c-1.21,0.19-2.46,0.29-3.76,0.29h-13.61v14.48h-9.05V94.22h22.65c6.22,0,11.54,2.21,15.96,6.62
			s6.62,9.73,6.62,15.96c0,6.27-2.2,11.61-6.59,16c-1.21,1.21-2.49,2.24-3.84,3.11l9.05,18.02h-10.06L321.55,139.17z M304.18,130.41
			h13.61c3.71,0,6.9-1.33,9.55-3.98c2.65-2.65,3.98-5.86,3.98-9.63c0-3.71-1.33-6.9-3.98-9.55c-2.65-2.65-5.84-3.98-9.55-3.98
			h-13.61V130.41z"/>
		<path class="st0" d="M364.11,103.27h-16.29v-9.05h41.62v9.05h-16.29v50.67h-9.05V103.27z"/>
		<path class="st0" d="M402.11,131.28V94.22h9.05v37.06c0,4.29,1.5,7.94,4.49,10.93c2.99,2.99,6.63,4.49,10.93,4.49
			c4.25,0,7.86-1.5,10.86-4.49c2.99-2.99,4.49-6.63,4.49-10.93V94.22h9.05v37.06c0,6.76-2.39,12.52-7.17,17.3
			c-4.78,4.78-10.52,7.17-17.23,7.17c-6.76,0-12.52-2.39-17.3-7.17C404.5,143.8,402.11,138.03,402.11,131.28z M435.77,70.7
			l-5.79,16.29h-8.03l4.34-16.29H435.77z"/>
	</g>
	<rect x="198.99" y="173.19" class="st1" width="94.81" height="4.11"/>
	<g>
		<path class="st0" d="M246.39,16.11c-15.26,0-27.63,12.37-27.63,27.63c0,15.26,12.37,27.63,27.63,27.63
			c15.26,0,27.63-12.37,27.63-27.63C274.01,28.48,261.65,16.11,246.39,16.11z M246.39,67.49c-13.1,0-23.75-10.65-23.75-23.75
			c0-13.1,10.65-23.75,23.75-23.75c13.1,0,23.75,10.65,23.75,23.75C270.14,56.84,259.48,67.49,246.39,67.49z"/>
		<g>
			<path class="st1" d="M217.03,55.37h-7.47v0.07c0,3.85,3.12,6.97,6.97,6.97h4.39C219.34,60.26,218.03,57.89,217.03,55.37z"/>
			<path class="st1" d="M214.82,43.36c0.03-2.42,0.33-4.78,0.88-7.04h-19.15v0.07c0,3.85,3.12,6.97,6.97,6.97H214.82z"/>
			<path class="st1" d="M216.16,52.88c-0.68-2.25-1.11-4.61-1.27-7.04h-11.92v0.07c0,3.85,3.12,6.97,6.97,6.97H216.16z"/>
			<path class="st1" d="M277.08,36.32c0.55,2.26,0.85,4.62,0.88,7.04h11.31c3.85,0,6.97-3.12,6.97-6.97v-0.07H277.08z"/>
			<path class="st1" d="M271.86,62.41h4.39c3.85,0,6.97-3.12,6.97-6.97v-0.07h-7.47C274.75,57.89,273.44,60.26,271.86,62.41z"/>
			<path class="st1" d="M276.62,52.88h6.23c3.85,0,6.97-3.12,6.97-6.97v-0.07h-11.92C277.73,48.27,277.3,50.63,276.62,52.88z"/>
		</g>
		<g>
			<path class="st1" d="M261.86,43.74c0-4.44-1.89-8.44-4.9-11.26l-3.44,2.42c-1.18-0.95-2.48-1.65-3.88-2.07
				c-1.41-0.43-2.74-0.64-3.99-0.64c-1.81,0-3.27,0.39-4.37,1.17s-1.66,1.73-1.66,2.86c0,1.03,0.37,1.93,1.11,2.69
				c0.74,0.77,1.8,1.35,3.18,1.75l7.46,2.03c2.14,0.65,3.86,1.71,5.16,3.17c1.31,1.46,1.96,3.32,1.96,5.58
				c0,0.82-0.12,1.59-0.34,2.31C260.46,51.05,261.86,47.56,261.86,43.74z"/>
			<path class="st1" d="M236.91,50.95c1.36,1.76,2.84,3,4.46,3.71c1.62,0.72,3.26,1.07,4.92,1.07c2.29,0,4.11-0.42,5.47-1.26
				c1.36-0.84,2.03-1.89,2.03-3.15c0-1-0.34-1.87-1.02-2.58c-0.68-0.72-1.71-1.26-3.09-1.64l-6.97-1.96
				c-2.54-0.78-4.46-1.96-5.78-3.54c-1.32-1.58-1.98-3.39-1.98-5.43c0-1.37,0.3-2.61,0.88-3.72c-3.02,2.83-4.92,6.83-4.92,11.28
				c0,3.49,1.17,6.7,3.13,9.29L236.91,50.95z"/>
		</g>
	</g>
</g>
</svg>
