<?xml version="1.0" encoding="utf-8"?>
<!-- Generator: Adobe Illustrator 24.2.3, SVG Export Plug-In . SVG Version: 6.00 Build 0)  -->
<svg version="1.1" id="Capa_1" xmlns="http://www.w3.org/2000/svg" xmlns:xlink="http://www.w3.org/1999/xlink" x="0px" y="0px"
	 viewBox="0 0 132 132" style="enable-background:new 0 0 132 132;" xml:space="preserve">
<style type="text/css">
	.st0{fill:#054B54;}
	.st1{fill:#987009;}
</style>
<path class="st0" d="M42.75,43.39c-12.94,12.94-12.94,34.01,0,46.95c13.01,13.01,34.01,12.94,46.95,0s12.94-34.01,0-46.95
	C76.77,30.45,55.76,30.38,42.75,43.39z M86.45,87.09c-11.1,11.1-29.27,11.17-40.45,0c-11.1-11.1-11.17-29.27,0-40.45
	c11.1-11.1,29.27-11.17,40.45,0S97.62,75.92,86.45,87.09z"/>
<path class="st1" d="M86.03,34.49c2.4,1.41,4.67,3.25,6.79,5.23l9.62-9.62c3.25-3.25,3.25-8.63,0-11.88l-0.07-0.07L86.03,34.49z"/>
<path class="st1" d="M103.78,61.14l3.75-3.75c3.25-3.25,3.25-8.63,0-11.88l-0.07-0.07l-6.36,6.36
	C102.36,54.78,103.28,57.96,103.78,61.14z"/>
<path class="st1" d="M99.75,48.91l5.3-5.3c3.25-3.25,3.25-8.63,0-11.88l-0.07-0.07L94.87,41.77C96.78,44.1,98.4,46.44,99.75,48.91z"
	/>
</svg>
